<svg version="1.1" id="Layer_1" xmlns="http://www.w3.org/2000/svg" xmlns:xlink="http://www.w3.org/1999/xlink" x="0px" y="0px"
	 viewBox="0 0 1366 378.2" style="enable-background:new 0 0 1366 378.2;" xml:space="preserve">
<style type="text/css">
	.st0{fill:#FFFFFF;}
</style>
<g>
	<path class="st0" d="M1366,325c-29.5,22.2-62.7,36.2-98.5,44.4c-56,13-111.7,12.2-166.5-6.5c-47.5-16.2-85.2-44.7-111.6-88.2
		c-11.4-18.8-24.9-36.7-39.1-53.6c-49.4-59.2-111.1-102-181.2-133c-55.4-24.5-113.4-40.2-173.1-50.2c-77.9-13-156.3-16.1-235.1-12.8
		C280.4,28.6,200.4,38,121.2,53.8c-39.9,8-79.5,17.9-119.2,27c-0.6,0.1-1.3,0.1-2,0.2C0,54,0,27,0,0c455.3,0,910.7,0,1366,0
		C1366,108.3,1366,216.7,1366,325z"/>
</g>
</svg>