<svg xmlns="http://www.w3.org/2000/svg" width="19.001" height="25" viewBox="0 0 19.001 25"><path d="M959.739,155H949.413a.392.392,0,0,1-.413-.417V130.416a.393.393,0,0,1,.413-.417h13.63c.041,0,.083.042.124.042h.041c.041.041.083.041.124.083l4.543,4.584c.041.041.041.084.083.125v.041A.154.154,0,0,1,968,135v19.583a.392.392,0,0,1-.413.417Zm0-17.5a.392.392,0,0,1,.413.417v16.249h7.022v-18.75h-4.131a.392.392,0,0,1-.413-.417v-4.167h-12.8v23.333h1.239v-15a.378.378,0,0,1,.124-.292l1.156-2.75a.4.4,0,0,1,.372-.25.362.362,0,0,1,.372.25l1.156,2.75a.325.325,0,0,1,.124.292v15h1.238V137.917a.392.392,0,0,1,.413-.417Zm-3.3,16.666h2.892V138.334h-2.892v2.083h1.652v.833h-1.652v2.5h1.652v.833h-1.652V147.5h1.652v.833h-1.652v2.5h1.652v.833h-1.652Zm-4.543,0h1.652V152.5h-1.652Zm0-2.5h1.652V139.584h-1.652Zm.206-12.917h1.239l-.619-1.459Zm11.359-4.167H966.6l-3.139-3.166ZM961.8,152.5v-.83h3.72v.83Zm0-2.09v-.83h3.72v.83Zm0-2.08v-.83h3.72v.83Zm0-2.08v-.83h3.72v.83Zm0-2.09v-.83h3.72v.83Zm0-2.08v-.831h3.72v.831Zm0-2.08v-.831h3.72V140ZM951.07,134.58v-.83h6.61v.83Zm0-1.669v-.83h3.3v.83Z" transform="translate(-949 -130)" fill="#c0461e" opacity="0.502"/></svg>