<svg xmlns="http://www.w3.org/2000/svg" xmlns:xlink="http://www.w3.org/1999/xlink" width="1375" height="433" viewBox="0 0 1375 433"><defs><filter id="a" x="-66.153" y="-62.605" width="1513" height="571" filterUnits="userSpaceOnUse"><feOffset dx="2.847" dy="6.395" input="SourceAlpha"/><feGaussianBlur stdDeviation="23" result="b"/><feFlood flood-opacity="0.09"/><feComposite operator="in" in2="b"/><feComposite in="SourceGraphic"/></filter><clipPath id="c"><g transform="matrix(1, 0, 0, 1, 0, 0)" filter="url(#a)"><rect width="1375" height="433" transform="translate(-1 -5)" fill="#fafafa"/></g></clipPath></defs><g transform="translate(1 5)" clip-path="url(#c)"><path d="M623.193,468.046C492.685,309.332,653,17.534,653,17.534s-758.04,9.075-758.04,8.694c0-149.17-.96,436.317-.96,513.591,0,4.377,649.946,61.9,729.191,11.833C648.382,535.739,654.516,506.138,623.193,468.046Z" fill="#eee"/><path d="M421.662,231.842C297.676,349.887,284.1,42.582,152.056,180.965S69.177,35.3-47.5,118.437s-151.881,55.784-222.5-28.129" fill="none" stroke="#e14917" stroke-linecap="round" stroke-width="5" opacity="0.8"/><path d="M-288.644,154.268c85.87,148.38,185.378-143.575,273.268,26.64S105.218,63.954,193.886,176.69,324.068,272.971,415.5,212.013" fill="none" stroke="#959595" stroke-linecap="round" stroke-width="5" opacity="0.8"/></g></svg>