<svg xmlns="http://www.w3.org/2000/svg" xmlns:xlink="http://www.w3.org/1999/xlink" width="110.903" height="118.009" viewBox="0 0 110.903 118.009"><defs><filter id="a" x="0" y="0" width="110.903" height="118.009" filterUnits="userSpaceOnUse"><feOffset dy="3" input="SourceAlpha"/><feGaussianBlur stdDeviation="3.5" result="b"/><feFlood flood-opacity="0.161"/><feComposite operator="in" in2="b"/><feComposite in="SourceGraphic"/></filter></defs><g transform="translate(-635.64 -816.499)"><g transform="matrix(1, 0, 0, 1, 635.64, 816.5)" filter="url(#a)"><path d="M666.236,824h49.712a20.272,20.272,0,0,1,20.1,20.481v56.05a20.271,20.271,0,0,1-20.1,20.479H666.236a20.271,20.271,0,0,1-20.1-20.479V844.48A20.272,20.272,0,0,1,666.236,824Z" transform="translate(-635.64 -816.5)" fill="#fff"/></g><ellipse cx="31.2" cy="31.8" rx="31.2" ry="31.8" transform="translate(658.83 840.49)" fill="#f2a58c" opacity="0.239"/><path d="M696.83,908.783H685.352V897.271h4.591V874.234h-6.886V882.3H669.295v5.763h4.591v11.513H662.42V888.064H667V880h13.761v-5.764h-14.91a10.367,10.367,0,0,1-2.295-20.466,13.483,13.483,0,0,1,16.812-12.524,16.83,16.83,0,0,1,24.557,3.36,9.957,9.957,0,0,1,9.33,2.378,10.069,10.069,0,0,1,3.185,6.591,10.363,10.363,0,0,1-1.107,20.662H701.409V880h13.762v8.067h4.593v11.513H708.3V888.064h4.591V882.3H699.126v-8.068H692.24v23.037h4.591v11.511h0Zm-9.18-2.3h6.89v-6.92h-6.89Zm22.939-9.2h6.89v-6.92h-6.89Zm-45.889,0h6.889v-6.92H664.7Zm1.138-42.921.041,1.376-1.036.128a8.067,8.067,0,0,0,1.007,16.066v.028h50.468a8.068,8.068,0,0,0,0-16.136h-1.2l.056-1.349a7.823,7.823,0,0,0-7.755-7.871,7.639,7.639,0,0,0-2.591.448l-.866.31-.491-.787a14.57,14.57,0,0,0-22.063-3.2l-.475.422-.616-.185a11.195,11.195,0,0,0-14.475,10.754Zm24.1,49.82V901.87h2.3v2.309Zm22.95-9.21v-2.31h2.3v2.31Zm-45.89,0v-2.31h2.3v2.31Zm2.295-40.289a8.061,8.061,0,0,1,8.035-8.067,1.152,1.152,0,0,1,0,2.3,5.76,5.76,0,0,0-5.739,5.763,1.148,1.148,0,1,1-2.3,0Z" fill="#797979"/></g></svg>