<svg xmlns="http://www.w3.org/2000/svg" width="91.927" height="91.807" viewBox="0 0 91.927 91.807"><g transform="translate(-0.001 -0.205)"><path d="M28.177,12.079A10.392,10.392,0,0,0,17.79,22.453a1.484,1.484,0,0,0,2.968,0,7.425,7.425,0,0,1,7.419-7.41,1.482,1.482,0,1,0,0-2.963Z" fill="#e14917"/><path d="M53.385,92.012H38.546v-14.8h5.935V47.59h-8.9V57.964H17.79v7.409h5.935v14.8H8.9v-14.8h5.918V55H32.611V47.59H13.338A13.323,13.323,0,0,1,10.37,21.277,17.437,17.437,0,0,1,32.1,5.175a21.946,21.946,0,0,1,6.511-3.691A21.869,21.869,0,0,1,56.051,2.661a22,22,0,0,1,7.792,6.833A12.991,12.991,0,0,1,80.02,21.024,13.321,13.321,0,0,1,78.59,47.59H59.3V55H77.089V65.373h5.935v14.8H68.2v-14.8h5.935V57.964H56.352V47.59h-8.9v29.62h5.935v14.8ZM41.509,80.159v8.89h8.9v-8.89ZM71.168,68.317v8.891h8.9V68.317Zm-59.317,0v8.891h8.9V68.317ZM27.8,7.578A14.483,14.483,0,0,0,13.32,22.036l.055,1.771-1.34.164a10.368,10.368,0,0,0,1.3,20.656v.036H78.573a10.373,10.373,0,1,0,0-20.747H77.015l.074-1.736a10.085,10.085,0,0,0-10.026-10.12,9.848,9.848,0,0,0-3.346.578l-1.122.4-.633-1.012A18.895,18.895,0,0,0,33.443,7.9l-.615.542-.8-.235A14.626,14.626,0,0,0,27.8,7.578Z" fill="#e14917"/><rect width="2.97" height="2.96" transform="translate(14.82 71.286)" fill="#e14917"/><rect width="2.97" height="2.96" transform="translate(44.479 83.119)" fill="#e14917"/><rect width="2.97" height="2.96" transform="translate(74.137 71.286)" fill="#e14917"/></g></svg>