<svg xmlns="http://www.w3.org/2000/svg" width="22.006" height="20.015" viewBox="0 0 22.006 20.015"><path d="M663.737,317.006a2.544,2.544,0,0,1-2.578-2.5,2.431,2.431,0,0,1,.346-1.252H656V296.991h16.8v10.967a3.751,3.751,0,0,1,1.068,1.543h.221a3.756,3.756,0,1,1,0,7.506Zm-1.29-2.5a1.273,1.273,0,0,0,1.29,1.251h10.358a2.5,2.5,0,1,0,0-5h-1.237l-.105-.5a2.567,2.567,0,0,0-2.526-2,2.594,2.594,0,0,0-2.57,2l-.105.5h-.591a1.908,1.908,0,0,0-1.934,1.876v.626h-1.29A1.271,1.271,0,0,0,662.447,314.5ZM657.29,312H663.8a3.192,3.192,0,0,1,2.725-2.473,3.7,3.7,0,0,1,.785-1.28H657.29Zm0-5h14.226v-3.753H657.29Zm0-5h14.226v-3.752H657.29Zm3.87,8.756V309.5h1.29v1.25Zm-2.579,0V309.5h1.29v1.25Zm5.16-5V304.5h1.29v1.25Zm-2.58,0V304.5h1.29v1.25Zm-2.579,0V304.5h1.29v1.25Zm5.16-5.009v-1.25h1.29v1.25Zm-2.58,0v-1.25h1.29v1.25Zm-2.579,0v-1.25h1.29v1.25Z" transform="translate(-656 -296.991)" fill="#c0461e" opacity="0.502"/></svg>