<svg xmlns="http://www.w3.org/2000/svg" width="73.12" height="73.12" viewBox="0 0 73.12 73.12"><g transform="translate(-0.13 -0.17)"><circle cx="36.56" cy="36.56" r="36.56" transform="translate(0.13 0.17)" fill="#4a7aff"/><path d="M38.3,73.246a36.557,36.557,0,0,0,34.953-36.52c0-.142,0-.284-.006-.426L47.867,10.925,20.736,39.284,35.811,54.359,28.86,63.81Z" fill="#0053bf"/><path d="M47.867,10.924V19.2s-9.5-1.38-9.5,4.751v6.132h8.584l-1.073,9.35H38.364V63.81h-9.5V39.437l-8.125-.154v-9.2h7.971V23.035s-.526-10.49,9.812-12.416A27.62,27.62,0,0,1,47.867,10.924Z" fill="#fff"/><path d="M47.867,19.2V10.924a27.62,27.62,0,0,0-9.35-.305,14.412,14.412,0,0,0-1.877.478V63.81h1.723V39.437h7.511l1.073-9.351H38.364V23.954C38.364,17.823,47.867,19.2,47.867,19.2Z" fill="#dce1eb"/></g></svg>