<svg xmlns="http://www.w3.org/2000/svg" xmlns:xlink="http://www.w3.org/1999/xlink" viewBox="63 673 1308 200"><defs><filter id="a" x="0" y="68.334" width="1390.791" height="793.333" filterUnits="userSpaceOnUse"><feOffset dy="3" input="SourceAlpha"/><feGaussianBlur stdDeviation="3.5" result="b"/><feFlood flood-color="#aeced5"/><feComposite operator="in" in2="b"/><feComposite in="SourceGraphic"/></filter><filter id="c" x="4.569" y="0" width="1384.714" height="830.599" filterUnits="userSpaceOnUse"><feOffset dy="3" input="SourceAlpha"/><feGaussianBlur stdDeviation="3.5" result="d"/><feFlood flood-color=""/><feComposite operator="in" in2="d"/><feComposite in="SourceGraphic"/></filter></defs><g transform="translate(16.503 31.162)"><g transform="matrix(1, 0, 0, 1, -16.5, -31.16)" filter="url(#a)"><path d="M1363.788,44.672V666.524s-47.352,95.675-129.805,68.18C1035.418,615.226,1019.362,820.227,816.524,720s-342.036,62.568-527.794,92.033C105.981,841.02,22.057,738.977-6,617.508-4.262,517.7-6,44.672-6,44.672H1363.788Z" transform="translate(16.5 31.16)" fill="#fff" opacity="0.451"/></g><g transform="matrix(1, 0, 0, 1, -16.5, -31.16)" filter="url(#c)"><path d="M1362.28-23.662V635.56s-47.352,95.675-129.805,68.18c-198.565-119.478-214.621,85.523-417.459-14.7S472.982,751.6,287.223,781.068C104.473,810.056,26.626,705.186-1.434,583.716c1.741-99.807,0-607.378,0-607.378s375.869,0,717.948,0Z" transform="translate(16.5 31.16)" fill="#fff" opacity="0.451"/></g></g></svg>