<?xml version="1.0" encoding="utf-8"?>
<!-- Generator: Adobe Illustrator 22.0.0, SVG Export Plug-In . SVG Version: 6.00 Build 0)  -->
<svg version="1.1" id="Layer_1" xmlns="http://www.w3.org/2000/svg" xmlns:xlink="http://www.w3.org/1999/xlink" x="0px" y="0px"
	 viewBox="0 0 1920 120.4" style="enable-background:new 0 0 1920 120.4;" xml:space="preserve">
<style type="text/css">
	.st0{fill:#FFFFFF;}
</style>
<g>
	<path class="st0" d="M2.5,0.2C1.6,0.2,0.8,0.1,0,0v4.1c1,1.7,2.1,3.5,3.3,5.3c9.7,14.3,22.3,28,39,41c24,18.6,54.9,34.4,94.6,46.5
		c24.9,7.5,51.7,13.1,80.4,16.9c41.4,5.6,83.8,7.2,126.8,6.4c25-0.4,49.7-1.8,74.3-3.8c44.1-3.5,86.9-9.2,128.4-16.7
		c40-7.3,79.7-15,119.3-22.8c41.8-8.2,83.3-16.8,126.3-23.7c26.4-4.3,53.1-7.9,80.5-10.6c34.3-3.4,68.9-5.2,104-4.8
		c34.2,0.4,67.8,2.9,100.7,7.3c29.9,4,58.1,9.7,86.1,15.8c26.3,5.7,53.6,10.2,82.1,13c29.9,2.9,60,3.7,90.4,1.6
		c29-1.9,56.4-6.2,83.2-11.4c23.4-4.5,46.6-9.2,70.3-13.4c33.9-6,69.1-8.8,105.5-7.3c20.6,0.8,40.6,3,60.1,6
		c28.1,4.3,54.6,10.3,80,17.1c7.8,2.1,16.4,2.8,24.9,3.5c12.6,1.1,25.4,1.1,38.2,0.3c18.5-1.2,35.4-4.3,51.1-8.9
		c27.1-7.9,47.8-18.6,65-30.7c1.8-1.3,3.7-2.6,5.5-3.9V0.2H2.5z"/>
</g>
</svg>
