<svg xmlns="http://www.w3.org/2000/svg" xmlns:xlink="http://www.w3.org/1999/xlink" width="183.778" height="207.733" viewBox="0 0 183.778 207.733"><defs><linearGradient id="a" x1="0.475" y1="-1.21" x2="0.525" y2="2.21" gradientUnits="objectBoundingBox"><stop offset="0" stop-opacity="0"/><stop offset="0.95"/><stop offset="1"/></linearGradient></defs><g transform="translate(-0.953 -0.628)"><path d="M51.987,165.448l-36.3,10.307L.952,123.863l.806-1.211,27-6.688,5.9,1.953,4.462,2.212,13.677,44.11Z" fill="#5ba9bc" opacity="0.439"/><path d="M184.2,71.724a28.2,28.2,0,0,1-28.219,28.224H50.452a28.215,28.215,0,0,1-1.384-56.413A27.2,27.2,0,0,1,75.8,21.042h3.6a27.232,27.232,0,0,1,17.3,6.212,32.638,32.638,0,0,1,63.049,11.958,24.517,24.517,0,0,1-.383,4.54A28.188,28.188,0,0,1,184.2,71.724Z" fill="#5ba9bc"/><path d="M184.2,71.724a28.2,28.2,0,0,1-28.219,28.224H50.452a28.215,28.215,0,0,1-1.384-56.413A27.2,27.2,0,0,1,75.8,21.042h3.6a27.232,27.232,0,0,1,17.3,6.212,32.638,32.638,0,0,1,63.049,11.958,24.517,24.517,0,0,1-.383,4.54A28.188,28.188,0,0,1,184.2,71.724Z" fill="url(#a)"/><path d="M183.792,63.6a26.449,26.449,0,0,1-8.2,19.135,28.479,28.479,0,0,1-19.818,7.929H51c-15.508,0-28.069-12.079-28.069-27.049a26.51,26.51,0,0,1,8.2-19.143A28.33,28.33,0,0,1,49.624,36.6a25.518,25.518,0,0,1,7.495-13.917,27.379,27.379,0,0,1,19.061-7.64h3.6a27.659,27.659,0,0,1,17.166,5.946A32.289,32.289,0,0,1,127.092,1.128c17.923,0,32.43,14,32.43,31.31a22.273,22.273,0,0,1-.383,4.325C173.033,38.383,183.792,49.779,183.792,63.6Z" fill="#fff" stroke="#707070" stroke-width="1" opacity="0.82"/><path d="M50.265,136.129h-17.9a2.162,2.162,0,0,1,0-4.325h17.9a5,5,0,0,0,5-5V95.984a2.162,2.162,0,0,1,4.325,0v30.84a9.318,9.318,0,0,1-9.326,9.3Z" fill="#5ba9bc"/><path d="M157.114,136.129h-17.9a9.318,9.318,0,0,1-9.311-9.3V95.984a2.161,2.161,0,1,1,4.323,0v30.84a5,5,0,0,0,5,5h17.9a2.162,2.162,0,0,1,0,4.325Z" fill="#5ba9bc"/><path d="M97.567,176.015a2.161,2.161,0,0,1-2.161-2.162V98.406a2.162,2.162,0,0,1,4.325,0v75.454A2.164,2.164,0,0,1,97.567,176.015Z" fill="#5ba9bc"/><path d="M52.794,164.238,16.5,174.545,1.758,122.651l27.8-7.9,5.9,1.947,4.462,2.22Z" fill="#9a9999" opacity="0.188"/><path d="M29.446,114.752l6.27,7.928,4.323-3.907A52.545,52.545,0,0,0,29.446,114.752Z" fill="#5ba9bc" opacity="0.439"/><path d="M35.716,122.659s2.522-.96,3.378-.2S50.922,164.8,50.922,164.8l1.872-.569L40.011,118.752Z" fill="#5ba9bc" opacity="0.102"/><path d="M10.378,132.389l24.884-6.595.5,1.586-24.854,6.7Z" fill="#9a9999" opacity="0.082"/><path d="M11.993,137.946l24.882-6.595.505,1.586-24.854,6.7Z" fill="#5ba9bc" opacity="0.439"/><path d="M13.613,143.51l24.877-6.595L39,138.494l-24.862,6.7Z" fill="#5ba9bc" opacity="0.439"/><path d="M15.228,149.067l24.882-6.595.505,1.578-24.854,6.7Z" fill="#9a9999" opacity="0.082"/><path d="M76.792,165.045l40.514,6.033-6.839,37.283-41.025-7.135Z" fill="#5ba9bc"/><path d="M76.424,164.311l40.514,6.032L110.1,207.626l-41.027-7.135Z" fill="#fff"/><path d="M76.792,165.045l39.412,6.141L109.423,206.7l-39.65-6.949Z" fill="#e14917" opacity="0.439"/><path d="M79.588,168.649,75.617,190.71,93.7,182.553l5.953,8.382-4.186,3.747,9.339-6.033L109,194.091l4.2-19.7Z" fill="#fff"/><path d="M163.644,159.055l-12.533-17.369,15.134-23.431,15.22,20.5s3.891,7.453.18,10.869-7.53-.937-7.294-2.537,5.181-7.927,5.181-7.927l-8.892-11.777L157.49,146.71l9.7,14.241c2.161,3.9.958,9.032-3,11.1a5.456,5.456,0,0,1-4.9.274C154.607,170.293,163.644,159.055,163.644,159.055Z" fill="#fff"/><path d="M164.249,158.854l-12.531-17.369,15.132-23.431,15.221,20.5s3.891,7.453.18,10.869-7.53-.937-7.292-2.537,5.181-7.927,5.181-7.927l-8.871-11.771-13.153,19.33,9.707,14.242a8.1,8.1,0,0,1-3,11.1,5.457,5.457,0,0,1-4.9.274C155.219,170.091,164.249,158.854,164.249,158.854Z" fill="#5ba9bc" opacity="0.439"/><path d="M165.12,158.725,152.6,141.348l15.134-23.424,15.219,20.49s3.885,7.453.18,10.876-7.53-.936-7.292-2.544,5.181-7.927,5.181-7.927l-8.894-11.777-13.159,19.33,9.707,14.241a8.091,8.091,0,0,1-3,11.1,5.428,5.428,0,0,1-4.894.274C156.091,169.954,165.12,158.725,165.12,158.725Z" fill="#797979" opacity="0.439"/><circle cx="6.74" cy="6.74" r="6.74" transform="translate(90.96 122.05)" fill="#fff"/><path d="M97.7,137.679H97.7a8.876,8.876,0,1,1,.008,0Zm.005-13.469a4.58,4.58,0,1,0,4.58,4.58A4.585,4.585,0,0,0,97.71,124.21Z" fill="#5ba9bc"/><circle cx="6.74" cy="6.74" r="6.74" transform="translate(125.72 111.28)" fill="#fff"/><path d="M132.461,126.9a8.9,8.9,0,1,1,6.286-2.607A8.9,8.9,0,0,1,132.461,126.9Zm0-13.478h0a4.573,4.573,0,1,1,0,.022Z" fill="#5ba9bc"/><circle cx="6.74" cy="6.74" r="6.74" transform="translate(50.82 111.28)" fill="#fff"/><path d="M57.55,126.9a8.9,8.9,0,1,1,.008,0Zm.008-13.478a4.573,4.573,0,1,1,0,.023Z" fill="#5ba9bc"/></g></svg>