<svg xmlns="http://www.w3.org/2000/svg" xmlns:xlink="http://www.w3.org/1999/xlink" width="100%" viewBox="100 190 1440 350"><defs><filter id="a" x="0" y="0" width="1622.48" height="645.767" filterUnits="userSpaceOnUse"><feOffset dy="11" input="SourceAlpha"/><feGaussianBlur stdDeviation="32.5" result="b"/><feFlood flood-opacity="0.141"/><feComposite operator="in" in2="b"/><feComposite in="SourceGraphic"/></filter><filter id="c" x="49.371" y="48.387" width="1526.949" height="514.481" filterUnits="userSpaceOnUse"><feOffset dy="11" input="SourceAlpha"/><feGaussianBlur stdDeviation="16" result="d"/><feFlood flood-opacity="0.18"/><feComposite operator="in" in2="d"/><feComposite in="SourceGraphic"/></filter></defs><g transform="translate(140.343 93.388)"><g transform="matrix(1, 0, 0, 1, -140.34, -93.39)" filter="url(#a)"><path d="M-42.843-6.888l1.495,285.254S.011,377.224,86.029,348.555c207.15-124.579,288.931,123.16,500.537,18.655s291.793,31.251,485.582,61.975c190.65,30.226,283.214,22.15,312.489-104.506-1.818-104.07,0-331.567,0-331.567H-42.843Z" transform="translate(140.34 93.39)" fill="#fff" opacity="0.451"/></g><g transform="matrix(1, 0, 0, 1, -140.34, -93.39)" filter="url(#c)"><path d="M-42.972-8V243.31S3.353,343.825,89.371,315.156C296.519,190.577,378.3,438.318,589.907,333.811S881.7,365.062,1075.49,395.785c190.65,30.226,283.214,22.15,312.487-104.506C1386.161,187.211,1383.935-8,1383.935-8H-42.972Z" transform="translate(140.34 93.39)" fill="#fff" opacity=".9"/></g></g></svg>