<svg xmlns="http://www.w3.org/2000/svg" xmlns:xlink="http://www.w3.org/1999/xlink" width="73.115" height="73.114" viewBox="0 0 73.115 73.114"><defs><radialGradient id="a" cx="0.5" cy="0.5" r="1.105" gradientTransform="translate(0)" gradientUnits="objectBoundingBox"><stop offset="0" stop-color="#fae100"/><stop offset="0.054" stop-color="#fadc04"/><stop offset="0.117" stop-color="#fbce0e"/><stop offset="0.183" stop-color="#fcb720"/><stop offset="0.251" stop-color="#fe9838"/><stop offset="0.305" stop-color="#ff7950"/><stop offset="0.492" stop-color="#ff1c74"/><stop offset="1" stop-color="#6c1cd1"/></radialGradient><linearGradient id="b" x1="1.455" y1="1.037" x2="-0.455" y2="-0.037" gradientUnits="objectBoundingBox"><stop offset="0" stop-color="#a1b5d8" stop-opacity="0"/><stop offset="0.309" stop-color="#90a2bd" stop-opacity="0.31"/><stop offset="0.755" stop-color="#7c8b9c" stop-opacity="0.761"/><stop offset="1" stop-color="#748290"/></linearGradient><linearGradient id="c" x1="0.5" y1="0.11" x2="0.5" y2="0.89" gradientUnits="objectBoundingBox"><stop offset="0" stop-color="#fae100" stop-opacity="0"/><stop offset="0.307" stop-color="#fca800" stop-opacity="0.31"/><stop offset="0.627" stop-color="#fe7300" stop-opacity="0.631"/><stop offset="0.868" stop-color="#ff5200" stop-opacity="0.871"/><stop offset="1" stop-color="#ff4500"/></linearGradient><linearGradient id="d" x1="0.654" y1="0.655" x2="0.346" y2="0.345" gradientUnits="objectBoundingBox"><stop offset="0" stop-color="#833ab4" stop-opacity="0"/><stop offset="1" stop-color="#833ab4"/></linearGradient><linearGradient id="e" x1="0.582" y1="0.885" x2="0.418" y2="0.115" xlink:href="#d"/><linearGradient id="f" x1="0.88" y1="0.88" x2="0.12" y2="0.12" xlink:href="#d"/><linearGradient id="g" x1="0.725" y1="0.699" x2="0.275" y2="0.301" xlink:href="#d"/><linearGradient id="h" x1="0.821" y1="0.175" x2="0.179" y2="0.825" gradientUnits="objectBoundingBox"><stop offset="0" stop-color="#833ab4"/><stop offset="0.092" stop-color="#9c3495"/><stop offset="0.293" stop-color="#dc2546"/><stop offset="0.392" stop-color="#fd1d1d"/><stop offset="0.559" stop-color="#fc6831"/><stop offset="0.689" stop-color="#fc9b40"/><stop offset="0.752" stop-color="#fcaf45"/><stop offset="0.781" stop-color="#fdb750"/><stop offset="0.865" stop-color="#fecb6a"/><stop offset="0.941" stop-color="#ffd87a"/><stop offset="1" stop-color="#ffdc80"/></linearGradient></defs><g transform="translate(-0.343 -0.78)"><path d="M72.206,13.857A13.311,13.311,0,0,0,60.381,2.032a220.812,220.812,0,0,0-46.96,0A13.314,13.314,0,0,0,1.595,13.857a220.825,220.825,0,0,0,0,46.958A13.314,13.314,0,0,0,13.421,72.642a220.812,220.812,0,0,0,46.96,0A13.312,13.312,0,0,0,72.206,60.816,220.824,220.824,0,0,0,72.206,13.857Z" fill="url(#a)"/><path d="M68.229,16.5A11.813,11.813,0,0,0,57.736,6.008a196.064,196.064,0,0,0-41.67,0A11.815,11.815,0,0,0,5.571,16.5a196.034,196.034,0,0,0,0,41.669A11.813,11.813,0,0,0,16.066,68.665a195.945,195.945,0,0,0,41.67,0A11.812,11.812,0,0,0,68.229,58.171,195.877,195.877,0,0,0,68.229,16.5Z" fill="url(#b)"/><path d="M1.439,59.3q.075.759.156,1.517A13.314,13.314,0,0,0,13.421,72.642a220.812,220.812,0,0,0,46.96,0A13.312,13.312,0,0,0,72.206,60.817q.081-.759.157-1.517Z" fill="url(#c)"/><path d="M72.206,60.816A221.111,221.111,0,0,0,73.45,35.583L56.738,18.871a11.968,11.968,0,0,0-8.721-4c-7.37-.266-14.762-.252-22.133,0-6.121.211-10.4,4.325-11.5,10.373-.194,1.068-.309,2.149-.462,3.225V46.2c.084.575.207,1.147.247,1.725a12.89,12.89,0,0,0,4.177,8.96L35.353,73.888a221.108,221.108,0,0,0,25.027-1.246A13.312,13.312,0,0,0,72.206,60.816Z" fill="url(#d)"/><path d="M72.206,60.817A13.312,13.312,0,0,1,60.381,72.642a221.108,221.108,0,0,1-25.027,1.246L18.373,56.907a11.906,11.906,0,0,0,7.512,2.885c7.369.277,14.763.269,22.132,0a11.843,11.843,0,0,0,11.7-11.838c.221-7.077.221-14.172,0-21.248a12.343,12.343,0,0,0-2.965-7.828l16.7,16.7a221.43,221.43,0,0,1-1.245,25.233Z" fill="url(#e)"/><path d="M45.528,29.42A11.709,11.709,0,1,0,28.984,45.964L56.078,73.059q2.153-.187,4.3-.417A13.313,13.313,0,0,0,72.206,60.816q.23-2.149.418-4.3Z" fill="url(#f)"/><path d="M73.316,45.213,51.51,23.407a2.783,2.783,0,1,0-3.9,3.9L72.926,52.623q.256-3.7.39-7.41Z" fill="url(#g)"/><path d="M36.924,60c-3.7,0-7.409-.069-11.039-.206a11.775,11.775,0,0,1-8.19-3.525,13,13,0,0,1-3.526-8.344c-.027-.392-.093-.788-.158-1.17-.031-.182-.062-.369-.089-.554V28.47c.048-.341.094-.689.137-1.025.094-.723.192-1.471.324-2.2,1.123-6.193,5.529-10.167,11.5-10.372,3.764-.13,7.539-.2,11.22-.2,3.664,0,7.335.065,10.912.194a12.749,12.749,0,0,1,4.609,1.014,11.5,11.5,0,0,1,3.659,2.5,12.327,12.327,0,0,1,3.428,8.329c.221,7.049.221,14.2,0,21.248a12.326,12.326,0,0,1-3.427,8.328,11.5,11.5,0,0,1-3.659,2.5A12.75,12.75,0,0,1,48.017,59.8C44.311,59.929,40.579,60,36.924,60Zm-.017-4.151c1.044,0,2.105.01,3.132.019s2.087.019,3.131.019c1.483,0,2.708-.02,3.855-.062,5.3-.2,8.531-3.419,8.653-8.623.152-6.546.152-13.185,0-19.731-.123-5.28-3.358-8.5-8.653-8.613-3.324-.07-6.7-.106-10.037-.106s-6.725.036-10.07.106c-5.267.111-8.5,3.284-8.638,8.487-.18,6.629-.18,13.352,0,19.983.14,5.126,3.369,8.3,8.638,8.5,1.133.042,2.342.062,3.807.062,1.029,0,2.075-.01,3.086-.019h.005C34.828,55.855,35.876,55.845,36.906,55.845Z" fill="url(#h)"/><path d="M36.924,60c-3.691,0-7.4-.069-11.039-.205a11.777,11.777,0,0,1-8.19-3.526,13,13,0,0,1-3.526-8.344c-.027-.392-.093-.788-.158-1.17-.03-.182-.062-.369-.089-.554V28.47c.048-.34.093-.686.137-1.021.095-.726.192-1.474.325-2.2,1.123-6.193,5.529-10.168,11.5-10.373,3.769-.129,7.544-.195,11.22-.195s7.339.065,10.912.194a12.748,12.748,0,0,1,4.609,1.014,11.5,11.5,0,0,1,3.659,2.5,12.326,12.326,0,0,1,3.428,8.328c.221,7.05.221,14.2,0,21.249a12.326,12.326,0,0,1-3.427,8.328,11.5,11.5,0,0,1-3.659,2.5A12.75,12.75,0,0,1,48.017,59.8C44.315,59.929,40.583,60,36.924,60Zm-.017-4.152c1.048,0,2.113.01,3.142.02s2.094.02,3.141.02c1.474,0,2.692-.02,3.833-.062,5.3-.2,8.531-3.421,8.653-8.624.152-6.546.152-13.185,0-19.731-.123-5.28-3.358-8.5-8.653-8.613-3.323-.07-6.7-.106-10.037-.106s-6.725.036-10.07.106c-5.267.111-8.5,3.284-8.638,8.487-.18,6.629-.18,13.352,0,19.983.14,5.125,3.369,8.3,8.638,8.5,1.128.042,2.333.061,3.79.061,1.032,0,2.081-.01,3.1-.019h.007C34.824,55.855,35.874,55.845,36.906,55.845Z" fill="#fff"/><path d="M36.9,49.05a11.71,11.71,0,1,1,8.28-3.43A11.633,11.633,0,0,1,36.9,49.05Zm0-19.39a7.68,7.68,0,1,0,7.68,7.68A7.688,7.688,0,0,0,36.9,29.66Z" fill="#fff"/><circle cx="2.79" cy="2.79" r="2.79" transform="translate(46.5 22.3)" fill="#fff"/></g></svg>