<svg xmlns="http://www.w3.org/2000/svg" width="82.143" height="82.142" viewBox="0 0 82.143 82.142"><g transform="translate(-0.67 -0.55)"><circle cx="41.07" cy="41.07" r="41.07" transform="translate(0.67 0.55)" fill="#4a86c5"/><path d="M70.783,12.572a41.076,41.076,0,1,1-58.09,58.091Z" fill="#3d80b2"/><path d="M80.859,54.152c.15-.47.287-.945.421-1.422Q81.078,53.447,80.859,54.152Z" fill="#4a86c5"/><path d="M81.283,52.721,59.031,30.469l-5.062,5.062L50.45,32.012,47.513,34.95l-17.2-17.2-1.067-.407-6.6,6.6,7.968,7.967-7.8,7.8,7.617,7.617L22.1,55.654l26.488,26.46A41.12,41.12,0,0,0,80.859,54.153q.221-.707.421-1.423A.027.027,0,0,1,81.283,52.721Z" fill="#377ca5"/><path d="M30.97,55.73H22.14V29.16h8.83V55.729Zm13.718-.005H35.856c0-.224.117-24.1,0-26.564h8.832v3.765a9.959,9.959,0,0,1,2.661-2.872,9.112,9.112,0,0,1,5.3-1.517,9.561,9.561,0,0,1,7.264,2.918c1.927,2.09,2.9,5.131,2.9,9.038V55.723H53.987V41.512c0-3.93-1.547-6.007-4.475-6.007a4.922,4.922,0,0,0-4.531,3.229,5.84,5.84,0,0,0-.293,2.153V55.723ZM26.556,25.534H26.5a4.959,4.959,0,0,1-3.553-1.34,4.491,4.491,0,0,1-1.33-3.253c0-2.7,2.055-4.589,5-4.589a4.584,4.584,0,0,1,4.939,4.589,4.451,4.451,0,0,1-1.343,3.253A5.144,5.144,0,0,1,26.556,25.534Z" fill="#fff"/></g></svg>