<svg xmlns="http://www.w3.org/2000/svg" width="22.01" height="24.988" viewBox="0 0 22.01 24.988"><path d="M953.959,153.344l-3.628-3.623-.518.518a2.2,2.2,0,0,1-3.109,0l-2.074-2.07a2.192,2.192,0,0,1,0-3.105l3.8-3.8a15.309,15.309,0,0,0,4.209-7.854l.012-.058a2.2,2.2,0,0,1,3.378-2.781l8.294,8.28a2.2,2.2,0,0,1-2.785,3.372l-.058.012a15.365,15.365,0,0,0-5.8,2.474l.352.352a2.192,2.192,0,0,1,0,3.105l-.518.518,1.554,1.552a2.2,2.2,0,0,1-3.109,3.105Zm-2.591-4.658L955,152.309a.732.732,0,0,0,1.036-1.035l-3.628-3.622Zm-5.7-2.588a.731.731,0,0,0,0,1.035l2.073,2.07a.733.733,0,0,0,1.037,0l3.628-3.622-3.109-3.1Zm7.774.518,1.037,1.035.518-.518a.731.731,0,0,0,0-1.035l-.484-.483C953.99,146.059,953.661,146.4,953.44,146.616Zm-3.141-5.206,3.173,3.167a16.779,16.779,0,0,1,6.8-3.563l-6.4-6.391A16.747,16.747,0,0,1,950.3,141.411Zm3.659-9.8a.731.731,0,0,0,0,1.035l8.293,8.28a.732.732,0,0,0,1.036-1.035L955,131.609a.733.733,0,0,0-1.037,0Zm-6.22,15.525a.731.731,0,0,1,0-1.035l1.037-1.035a.732.732,0,1,1,1.037,1.035l-1.037,1.035a.735.735,0,0,1-1.037,0ZM963.8,136.318a.732.732,0,1,1,0-1.463h1.466a.732.732,0,1,1,0,1.463Zm-1.984-3.142a.733.733,0,0,1,0-1.035l1.467-1.463a.732.732,0,1,1,1.036,1.035l-1.466,1.463a.733.733,0,0,1-1.037,0Zm-3.146-1.981v-1.464a.733.733,0,0,1,1.466,0V131.2a.733.733,0,0,1-1.466,0Z" transform="translate(-943.985 -129)" fill="#c0461e" opacity="0.502"/></svg>