<svg xmlns="http://www.w3.org/2000/svg" xmlns:xlink="http://www.w3.org/1999/xlink" width="110.905" height="118.009" viewBox="0 0 110.905 118.009"><defs><filter id="a" x="0" y="0" width="110.905" height="118.009" filterUnits="userSpaceOnUse"><feOffset dy="3" input="SourceAlpha"/><feGaussianBlur stdDeviation="3.5" result="b"/><feFlood flood-opacity="0.161"/><feComposite operator="in" in2="b"/><feComposite in="SourceGraphic"/></filter></defs><g transform="translate(-863.594 -816.499)"><g transform="matrix(1, 0, 0, 1, 863.59, 816.5)" filter="url(#a)"><path d="M894.192,824H943.9A20.272,20.272,0,0,1,964,844.48v56.05a20.271,20.271,0,0,1-20.1,20.479H894.192a20.273,20.273,0,0,1-20.1-20.479V844.48A20.274,20.274,0,0,1,894.192,824Z" transform="translate(-863.59 -816.5)" fill="#fff"/></g><ellipse cx="31.25" cy="31.85" rx="31.25" ry="31.85" transform="translate(886.3 840.59)" fill="#f2a58c" opacity="0.239"/><path d="M917.773,904.7a11.548,11.548,0,0,1-2.509-.263L906.96,903a1.02,1.02,0,0,1-.666-.423,1.033,1.033,0,0,1,.841-1.626,1.063,1.063,0,0,1,.176.015l8.331,1.447.015,0,.022.005.013,0a9.6,9.6,0,0,0,2.082.218,10.717,10.717,0,0,0,3.073-.451l21.8-6.528a1.951,1.951,0,0,0,1.52-2.389,1.71,1.71,0,0,0-1.772-1.253,3.5,3.5,0,0,0-.838.112l-.015,0-13.894,3.253a8.355,8.355,0,0,1-1.923.217,18.069,18.069,0,0,1-2.161-.169h-.01l-.013,0-.086-.011h-.005c-.357-.043-.8-.1-1.245-.13-.031,0-.062-.006-.091-.011l-7.779-1.3-.012,0-.012,0h-.007l-.037-.008a3.274,3.274,0,0,1-2.726-3.674,3.191,3.191,0,0,1,3.212-2.742c.08,0,.163,0,.246.008h2.441a3.6,3.6,0,0,0,2.185-.608,2.326,2.326,0,0,0,.952-1.709,3.02,3.02,0,0,0-2.68-3.117h-3.132c-1.045,0-1.862.025-2.65.081-.42.029-.831.067-1.256.118-.824.1-1.655.235-2.539.422-1.408.3-2.99.724-4.977,1.337l-7.611,2.355v12.515l6.562,1.141a1.034,1.034,0,0,1-.175,2.052,1.108,1.108,0,0,1-.177-.016l-6.374-1.11a2.617,2.617,0,0,1-2.439,1.707h-5.94a2.61,2.61,0,0,1-2.6-2.612v-14.6a2.61,2.61,0,0,1,2.6-2.612h5.94a2.589,2.589,0,0,1,2.329,1.453l7.279-2.253c1.449-.448,2.711-.8,3.859-1.087l-2.357-2.36a3.146,3.146,0,0,1,0-4.435l1.156-1.156a23.708,23.708,0,0,1-1.959-4.729h-1.631a3.136,3.136,0,0,1-3.128-3.136v-7.025a3.134,3.134,0,0,1,3.128-3.132h1.631a23.724,23.724,0,0,1,1.959-4.731l-1.156-1.155a3.146,3.146,0,0,1,0-4.435l4.96-4.964a3.125,3.125,0,0,1,4.419,0l1.157,1.158a23.578,23.578,0,0,1,4.721-1.962V837.32a3.134,3.134,0,0,1,3.128-3.132h7.009a3.133,3.133,0,0,1,3.127,3.132v1.635a23.335,23.335,0,0,1,4.725,1.963l1.156-1.158a3.127,3.127,0,0,1,4.421,0l4.958,4.964a3.153,3.153,0,0,1,0,4.433l-1.16,1.157a23.536,23.536,0,0,1,1.962,4.731h1.631a3.134,3.134,0,0,1,3.128,3.134V865.2a3.135,3.135,0,0,1-3.128,3.136h-1.631a23.613,23.613,0,0,1-1.962,4.728l1.158,1.16a3.151,3.151,0,0,1,0,4.432l-4.96,4.966a3.127,3.127,0,0,1-4.421,0l-1.156-1.158a23.6,23.6,0,0,1-4.725,1.963v1.635a3.133,3.133,0,0,1-3.127,3.132h-7.009a3.094,3.094,0,0,1-1.795-.57,5.606,5.606,0,0,1-3.391,1H914.89c-.047,0-.087,0-.124,0a1.154,1.154,0,0,0-1.191.988c-.1.638.328,1.139,1.136,1.342l7.7,1.287c.451.036.871.086,1.278.134l.02,0,.081.009.013,0,.022,0a16.249,16.249,0,0,0,1.9.152,6.3,6.3,0,0,0,1.459-.161l13.89-3.253a5.54,5.54,0,0,1,1.328-.171,3.762,3.762,0,0,1,3.755,2.776,4.023,4.023,0,0,1-2.918,4.914l-21.8,6.527A12.777,12.777,0,0,1,917.773,904.7Zm-30.582-19.732a.552.552,0,0,0-.544.546v14.6a.552.552,0,0,0,.544.546h5.94a.546.546,0,0,0,.544-.546v-14.6a.546.546,0,0,0-.544-.546Zm27.578-4.915h3.221a1.084,1.084,0,0,1,.166.014,5.045,5.045,0,0,1,4.474,5.335,4.392,4.392,0,0,1-.451,1.622,1.036,1.036,0,0,0,.449.1h7.009a1.068,1.068,0,0,0,1.067-1.067v-2.424a1.03,1.03,0,0,1,.776-1,21.4,21.4,0,0,0,5.656-2.348,1.029,1.029,0,0,1,.525-.144,1.017,1.017,0,0,1,.725.3l1.712,1.714a1.069,1.069,0,0,0,1.514,0l4.96-4.964a1.076,1.076,0,0,0,0-1.511l-1.713-1.716a1.038,1.038,0,0,1-.157-1.261,21.541,21.541,0,0,0,2.349-5.658,1.023,1.023,0,0,1,.994-.777h2.417a1.072,1.072,0,0,0,1.071-1.071v-7.025a1.07,1.07,0,0,0-1.071-1.066H948.04a1.023,1.023,0,0,1-.994-.777,21.556,21.556,0,0,0-2.349-5.664,1.035,1.035,0,0,1,.159-1.261l1.714-1.714a1.078,1.078,0,0,0,0-1.512l-4.955-4.963a1.071,1.071,0,0,0-1.514,0l-1.712,1.715a1.026,1.026,0,0,1-1.253.158,21.21,21.21,0,0,0-5.651-2.347,1.03,1.03,0,0,1-.778-1V837.32a1.068,1.068,0,0,0-1.067-1.066h-7.009a1.07,1.07,0,0,0-1.072,1.066v2.425a1.028,1.028,0,0,1-.773,1,21.522,21.522,0,0,0-5.654,2.349,1.022,1.022,0,0,1-1.25-.157l-1.713-1.714a1.07,1.07,0,0,0-1.513,0l-4.958,4.964a1.071,1.071,0,0,0,0,1.51l1.71,1.712a1.035,1.035,0,0,1,.159,1.26,21.549,21.549,0,0,0-2.344,5.666,1.03,1.03,0,0,1-1,.777h-2.417a1.069,1.069,0,0,0-1.071,1.065V865.2a1.072,1.072,0,0,0,1.071,1.071h2.417a1.03,1.03,0,0,1,1,.777,21.625,21.625,0,0,0,2.344,5.665,1.032,1.032,0,0,1-.159,1.258l-1.71,1.715a1.069,1.069,0,0,0,0,1.508l3.306,3.31A31.134,31.134,0,0,1,914.769,880.057Zm11.364-.258a18.114,18.114,0,0,1-11.908-31.725,1.027,1.027,0,0,1,1.452.1,1.037,1.037,0,0,1-.1,1.457,16.053,16.053,0,0,0,5.817,27.387v-6.1a10.83,10.83,0,0,1-1.666-18.841,3.908,3.908,0,0,1,2.015-.788,1.7,1.7,0,0,1,.864.226c1,.577.941,2.576.92,2.971,0,.009,0,.014,0,.016v5.886a2.615,2.615,0,1,0,5.207,0V854.5s0-.006,0-.014c-.022-.394-.079-2.391.92-2.969a1.7,1.7,0,0,1,.865-.227,3.9,3.9,0,0,1,2.012.787,10.83,10.83,0,0,1-1.664,18.843v6.1A16.04,16.04,0,1,0,919.4,847.132a1.019,1.019,0,0,1-.43.095,1.034,1.034,0,0,1-.433-1.972,18.1,18.1,0,1,1,7.593,34.544Zm-4.63-26.373a3.821,3.821,0,0,0-.614.355,8.762,8.762,0,0,0,1.893,15.471,1.04,1.04,0,0,1,.672.97v7.284a15.992,15.992,0,0,0,5.357,0v-7.284a1.042,1.042,0,0,1,.672-.97,8.763,8.763,0,0,0,1.893-15.471,4.1,4.1,0,0,0-.614-.355l.033,6.959a4.939,4.939,0,0,1-4.594,4.922l-.069,0-.068,0a4.939,4.939,0,0,1-4.593-4.922l.031-6.959Z" fill="#797979"/></g></svg>