<svg xmlns="http://www.w3.org/2000/svg" width="58.823" height="58.766" viewBox="0 0 58.823 58.766"><g transform="translate(-0.025 -0.507)"><path d="M9.8,59.013l-9.508-9.5a.9.9,0,0,1,0-1.272.9.9,0,0,1,1.273,0l9.509,9.5a.914.914,0,0,1,.048,1.22.9.9,0,0,1-.687.311A.889.889,0,0,1,9.8,59.013ZM34.96,45.9a10.5,10.5,0,1,1,10.5,10.49A10.507,10.507,0,0,1,34.96,45.9Zm1.8,0a8.7,8.7,0,1,0,8.7-8.7A8.711,8.711,0,0,0,36.76,45.9ZM13.191,55.621l-9.507-9.5A.9.9,0,0,1,4.958,44.85l9.507,9.5a.9.9,0,0,1-.638,1.532A.893.893,0,0,1,13.191,55.621ZM44.563,52.14v-.986a2.762,2.762,0,0,1-2.5-2.757.9.9,0,0,1,1.8,0,.972.972,0,0,0,.972.971h.936a1.283,1.283,0,1,0,0-2.566H45.15a3.083,3.083,0,0,1-.588-6.109V39.666a.9.9,0,1,1,1.8,0v.985a2.763,2.763,0,0,1,2.5,2.758v.624a.9.9,0,0,1-1.8,0v-.624a.972.972,0,0,0-.972-.971H45.15a1.283,1.283,0,1,0,0,2.567h.624a3.082,3.082,0,0,1,.589,6.107V52.14a.9.9,0,0,1-1.8,0Zm-27.975.088-9.508-9.5a.9.9,0,1,1,1.273-1.273l9.509,9.5a.9.9,0,0,1-.639,1.532A.889.889,0,0,1,16.588,52.228Zm3.395-3.393-9.508-9.5a.9.9,0,0,1,0-1.272l29.9-29.874L36.259,4.077a.907.907,0,0,1,.549-1.531L57.861.51a.8.8,0,0,1,.085,0,.91.91,0,0,1,.639.264.892.892,0,0,1,.259.722L56.806,22.526a.9.9,0,0,1-.913.806.87.87,0,0,1-.62-.257l-4.117-4.114L29.318,40.782a.9.9,0,1,1-1.274-1.272L50.52,17.054a.9.9,0,0,1,1.273,0l3.4,3.4L56.947,2.407,38.881,4.154l3.406,3.4a.9.9,0,0,1,0,1.272L12.386,38.7l8.234,8.227,4.543-4.54a.9.9,0,1,1,1.273,1.272l-5.18,5.175a.907.907,0,0,1-1.274,0ZM2.31,13.28A10.5,10.5,0,0,1,20.235,5.863,10.495,10.495,0,1,1,2.31,13.28Zm1.8,0a8.7,8.7,0,1,0,8.7-8.7A8.709,8.709,0,0,0,4.11,13.28Zm7.8,6.234V18.53a2.775,2.775,0,0,1-2.5-2.757.9.9,0,0,1,1.8,0,.973.973,0,0,0,.972.971h.937a1.283,1.283,0,1,0,0-2.567H12.5a3.082,3.082,0,0,1-.589-6.108V7.042a.9.9,0,0,1,1.8,0v.985a2.776,2.776,0,0,1,2.5,2.757v.625a.9.9,0,0,1-1.8,0v-.625a.974.974,0,0,0-.972-.971H12.5a1.283,1.283,0,1,0,0,2.567h.625a3.082,3.082,0,0,1,.589,6.108v1.028a.9.9,0,0,1-1.8,0Z" fill="#e14917"/></g></svg>