<svg xmlns="http://www.w3.org/2000/svg" width="24.008" height="24.008" viewBox="0 0 24.008 24.008"><path d="M673.358,150.843a1.16,1.16,0,0,1,.759-1.085,8.068,8.068,0,0,0-1.2-3.949h-2.672a4.214,4.214,0,0,1-.963,2.324h.594v.774H669.1v.775h.775v.774H669.1V152h-6.2v-1.549h-.774v-.774h.774v-.775h-.774v-.774h.593a4.214,4.214,0,0,1-.962-2.324h-2.673a8.068,8.068,0,0,0-1.2,3.949,1.162,1.162,0,1,1-.782-.008,8.851,8.851,0,0,1,1.079-3.941H654V128H678v17.812h-4.185a8.851,8.851,0,0,1,1.079,3.941,1.159,1.159,0,1,1-1.541,1.093Zm.774,0a.387.387,0,1,0,.388-.388A.388.388,0,0,0,674.132,150.843Zm-10.455.387h4.647v-.775h-4.647Zm-6.583-.387a.387.387,0,1,0,.387-.388A.388.388,0,0,0,657.094,150.843Zm6.583-1.162h4.647v-.775h-4.647Zm3.873-4.26a1.547,1.547,0,0,1-1.162,1.494v1.217h1.936v-.11l.117-.114a3.485,3.485,0,1,0-4.88,0l.116.114v.11h1.937v-1.217a1.546,1.546,0,1,1,1.936-1.494Zm-2.324,0a.775.775,0,1,0,.775-.774A.776.776,0,0,0,665.225,145.421Zm8.117-.387h3.887V131.868H654.771v13.166h3.887a8.959,8.959,0,0,1,3.717-3.1H657.8a1.161,1.161,0,1,1,0-.775H674.2a1.161,1.161,0,1,1,0,.775h-4.577A8.959,8.959,0,0,1,673.342,145.034Zm-3.1,0h2.134a8.173,8.173,0,0,0-3.214-2.459A4.239,4.239,0,0,1,670.24,145.034Zm-10.614,0h2.134a4.239,4.239,0,0,1,1.08-2.459A8.166,8.166,0,0,0,659.626,145.034Zm15.28-3.485a.387.387,0,1,0,.387-.388A.388.388,0,0,0,674.906,141.549Zm-18.587,0a.387.387,0,1,0,.387-.388A.388.388,0,0,0,656.32,141.549Zm-1.549-10.455h22.459V128.77H654.771Zm15.489,8.518v-6.97h6.2v6.97Zm.774-.774h4.647v-5.422h-4.647Zm-8.518.774v-6.97h6.97v6.97Zm.774-.774h5.422v-5.422h-5.422Zm-7.745.774v-6.97h6.2v6.97Zm.775-.774h4.647v-5.422H656.32Zm2.32-8.528v-.77h.77v.77Zm-3.1,0v-.77h2.32v.77Z" transform="translate(-653.996 -127.996)" fill="#c0461e" opacity="0.502"/></svg>