<svg xmlns="http://www.w3.org/2000/svg" width="67.223" height="45.672" viewBox="0 0 67.223 45.672"><path d="M960.261,1059.45a4.121,4.121,0,0,1-2.924-1.2l-3.511-3.484a4.148,4.148,0,0,1-6.947,1.958l-.152-.151-.009-.009c-3.454-3.436-6.366-6.341-8.2-8.182a.973.973,0,0,1,.007-1.381.991.991,0,0,1,1.391.007c1.833,1.84,4.743,4.743,8.193,8.175l.02.02.141.14a2.178,2.178,0,0,0,3.065,0,2.141,2.141,0,0,0,0-3.045l-4.98-4.96-.345-.344a.974.974,0,0,1,0-1.382.989.989,0,0,1,1.391,0l11.326,11.257a2.161,2.161,0,0,0,3.079-3.034l-11.342-11.267a.974.974,0,0,1,0-1.382.991.991,0,0,1,1.391,0l14.262,14.162a2.293,2.293,0,0,0,1.6.659,2.133,2.133,0,0,0,1.755-3.369L954.9,1038.159a.977.977,0,0,1,.694-1.668.978.978,0,0,1,.7.286l12.029,11.95a2.224,2.224,0,0,0,2.238.514,2.143,2.143,0,0,0,1.416-1.954,3.581,3.581,0,0,0-1.464-2.325c-.644-.6-10.078-10.041-13.629-13.6l-.062-.062-1.057-1.058-2.12.021h-.031l-1.771-.039a4.838,4.838,0,0,1-4.734-4.443,4.645,4.645,0,0,1,.578-2.541c-.367.055-.741.123-1.11.2a4.9,4.9,0,0,1-1.064.118,4.7,4.7,0,0,1-3.336-1.372l-.617-.612-10.9,10.824.477.46c.831.8,2.377,2.3,2.648,2.571a5.108,5.108,0,0,1,1.234,3.336,9.488,9.488,0,0,0,.18,1.2,11.517,11.517,0,0,0,1.745,3.82.973.973,0,0,1-.252,1.358.989.989,0,0,1-1.369-.25,13.5,13.5,0,0,1-2.036-4.467,10.724,10.724,0,0,1-.222-1.44l0-.015v-.006a3.52,3.52,0,0,0-.669-2.16c-.359-.357-3.176-3.081-3.2-3.108a2.211,2.211,0,0,1-2.552-.407l-3.2-3.183a2.181,2.181,0,0,1,0-3.1l12.682-12.6a2.218,2.218,0,0,1,3.118,0l3.2,3.185a2.181,2.181,0,0,1,.42,2.509l.7.7a2.743,2.743,0,0,0,1.95.8,2.89,2.89,0,0,0,.628-.069,23.838,23.838,0,0,1,4.009-.49,4.456,4.456,0,0,1,1.655-.326h.083c1.648,0,3.276.1,4.65.2.766.054,4.538.347,4.791.367,1.067.085,2.17.173,3.266.173a8.487,8.487,0,0,0,5.323-1.391,2.189,2.189,0,0,1,.441-2.468l3.2-3.185a2.22,2.22,0,0,1,3.119,0l1.683,1.674a.97.97,0,0,1,0,1.381.985.985,0,0,1-1.39,0l-1.686-1.674a.24.24,0,0,0-.338,0l-3.2,3.185a.237.237,0,0,0,0,.336l12.683,12.6a.235.235,0,0,0,.169.07.237.237,0,0,0,.168-.07l3.2-3.183a.236.236,0,0,0,0-.336l-7.736-7.686a.973.973,0,0,1,0-1.381.989.989,0,0,1,1.391,0l7.736,7.686a2.183,2.183,0,0,1,0,3.1l-3.2,3.183a2.2,2.2,0,0,1-1.56.643,2.243,2.243,0,0,1-.819-.157l-2.861,2.751a2.775,2.775,0,0,0-.817,1.791,13.432,13.432,0,0,1-3.112,7.555c-.061.072-4.179,4.189-4.216,4.226a3.849,3.849,0,0,1-1.969,1.091s.022.021.047.047c.056.058.141.146.16.171a4.081,4.081,0,0,1-3.293,6.536,4.215,4.215,0,0,1-2.994-1.225l-.445-.441a4.075,4.075,0,0,1-1.1,1.961A4.123,4.123,0,0,1,960.261,1059.45Zm1.828-29.568a32.3,32.3,0,0,1-3.627.281l13.713,13.735.078.078a6.435,6.435,0,0,1,1.2,1.461,4.087,4.087,0,0,1,.356.891c1.337-1.344,1.616-1.633,1.674-1.695a11.486,11.486,0,0,0,2.659-6.446,4.737,4.737,0,0,1,1.408-3.049l2.714-2.61-11.053-10.981c-1.618,1.273-3.728,1.867-6.64,1.867-1.172,0-2.3-.09-3.4-.176l-.216-.017c-.2-.016-.4-.032-.6-.046q-.7-.052-1.4-.108l-.4-.031-.252-.02h-.01c-.625-.049-1.272-.1-1.909-.145-1.25-.088-2.9-.19-4.589-.193a2.742,2.742,0,0,0-1.957.889,2.813,2.813,0,0,0-.786,2.09,2.865,2.865,0,0,0,2.814,2.617q.644.014,1.3.033c1.027.028,2.089.056,3.144.056a30.048,30.048,0,0,0,5.558-.428,1.361,1.361,0,0,1,.249-.023,2.258,2.258,0,0,1,1.844,1.225,6.577,6.577,0,0,0,3.308,2.981.974.974,0,0,1,.551.513.964.964,0,0,1,.024.744.986.986,0,0,1-1.265.572,8.555,8.555,0,0,1-4.395-3.97.545.545,0,0,0-.11-.1Zm-24.411-14.151a.245.245,0,0,0-.17.069l-12.682,12.6a.236.236,0,0,0,0,.336l3.206,3.183a.237.237,0,0,0,.336,0l12.682-12.6a.238.238,0,0,0,0-.336l-3.2-3.184A.236.236,0,0,0,937.679,1015.732Z" transform="translate(-922.791 -1013.778)" fill="#797979"/></svg>