<svg xmlns="http://www.w3.org/2000/svg" width="60.985" height="58.428" viewBox="0 0 60.985 58.428"><g transform="translate(-0.484 -0.215)"><path d="M56.387,58.643H5.566A4.994,4.994,0,0,1,.484,53.774V5.084A4.994,4.994,0,0,1,5.566.215H56.387a4.994,4.994,0,0,1,5.082,4.869v48.69A4.994,4.994,0,0,1,56.387,58.643ZM2.516,9.953V53.774A2.991,2.991,0,0,0,5.566,56.7H56.387a2.991,2.991,0,0,0,3.049-2.921V9.953Zm3.049-7.79A2.991,2.991,0,0,0,2.516,5.084V8.005h56.92V5.084a2.991,2.991,0,0,0-3.05-2.921Z" fill="#e14917"/><path d="M7.6,4.277H6.583a1.015,1.015,0,1,0,0,2.03H7.6a1.015,1.015,0,1,0,0-2.03Z" fill="#e14917"/><path d="M12.05,4.359a.929.929,0,0,0-.772,0,1.189,1.189,0,0,0-.336.213,1.03,1.03,0,0,0,0,1.442,1.189,1.189,0,0,0,.336.213.952.952,0,0,0,.772,0,1.189,1.189,0,0,0,.336-.213,1.03,1.03,0,0,0,0-1.442A1.189,1.189,0,0,0,12.05,4.359Z" fill="#e14917"/><path d="M16.12,4.349a1.017,1.017,0,0,0-1.111.223,1.175,1.175,0,0,0-.214.335.956.956,0,0,0,0,.772,1.174,1.174,0,0,0,.214.335,1.032,1.032,0,0,0,1.443,0,1.176,1.176,0,0,0,.214-.335.839.839,0,0,0,.081-.386A1.014,1.014,0,0,0,16.12,4.349Z" fill="#e14917"/><path d="M55.37,4.277H20.812a1.015,1.015,0,1,0,0,2.03H55.37a1.015,1.015,0,1,0,0-2.03Z" fill="#e14917"/><g transform="translate(6.07 13.89)" fill="none" stroke="#e14917" stroke-width="1.5"><rect width="49.17" height="33.58" rx="2.49" stroke="none"/><rect x="0.75" y="0.75" width="47.67" height="32.08" rx="1.74" fill="none"/></g><path d="M30.972,18.993h0Z" fill="none" stroke="#e14917" stroke-linecap="round" stroke-width="2"/><path d="M12.033,23.293h0Z" fill="none" stroke="#e14917" stroke-linecap="round" stroke-width="2"/><path d="M12.033,28.451h0Z" fill="none" stroke="#e14917" stroke-linecap="round" stroke-width="2"/><path d="M12.033,32.749h0Z" fill="none" stroke="#e14917" stroke-linecap="round" stroke-width="2"/><path d="M25.68,18.993h0Z" fill="none" stroke="#e14917" stroke-linecap="round" stroke-width="2"/></g></svg>