<svg xmlns="http://www.w3.org/2000/svg" width="51.968" height="51.624" viewBox="0 0 51.968 51.624"><path d="M661.374,1058.336a3.714,3.714,0,0,1-2.632-1.082l-.044-.044a3.684,3.684,0,0,1,0-5.231l12.411-12.327a3.742,3.742,0,0,1,4.539-.548l2.524-2.506a.939.939,0,0,1,1.323,0,16.375,16.375,0,1,0-2.713-3.547.926.926,0,0,1-.356,1.267.939.939,0,0,1-1.275-.353,18.233,18.233,0,0,1,6.87-24.825,18.517,18.517,0,0,1,9.156-2.428h.011a18.374,18.374,0,0,1,17.673,13.244,18.225,18.225,0,0,1-7.953,20.536,18.491,18.491,0,0,1-22.06-1.942l-1.886,1.875a3.665,3.665,0,0,1-.544,4.5l-12.411,12.329A3.716,3.716,0,0,1,661.374,1058.336Zm12.359-17.909a1.849,1.849,0,0,0-1.3.538l-12.411,12.33a1.829,1.829,0,0,0,0,2.6l.044.045a1.863,1.863,0,0,0,2.618,0l12.411-12.326a1.836,1.836,0,0,0,0-2.6,1.9,1.9,0,0,0-1.355-.583Zm17.512-2.168h-.007a13.365,13.365,0,0,1-11.83-7.077,13.238,13.238,0,0,1,4.65-17.429,13.4,13.4,0,0,1,7.164-2.074,13.564,13.564,0,0,1,5.892,1.353,13.217,13.217,0,0,1,4.8,3.941.925.925,0,0,1-.187,1.3.938.938,0,0,1-1.31-.185,11.549,11.549,0,0,0-9.2-4.586h-.046a11.473,11.473,0,1,0,10.947,7.784.923.923,0,0,1,.6-1.147.938.938,0,0,1,1.176.553,13.259,13.259,0,0,1-7.369,16.477A13.335,13.335,0,0,1,691.245,1038.259Z" transform="translate(-657.609 -1006.712)" fill="#797979"/></svg>