<svg xmlns="http://www.w3.org/2000/svg" width="64.722" height="57.916" viewBox="0 0 64.722 57.916"><g transform="translate(-0.125 -0.943)"><path d="M51.317,36.745a4.579,4.579,0,0,1-4.393-3.334H19.708a4.566,4.566,0,1,1-4.748-5.779c.117-.009.236-.014.353-.014a4.574,4.574,0,0,1,4.48,3.686H46.84a4.574,4.574,0,0,1,4.479-3.686c.117,0,.236,0,.353.014a4.563,4.563,0,0,1-.355,9.113Zm0-7.02a2.457,2.457,0,1,0,2.46,2.457A2.461,2.461,0,0,0,51.321,29.725Zm-36.009,0a2.457,2.457,0,1,0,2.459,2.457A2.461,2.461,0,0,0,15.312,29.725Z" fill="#e14917"/><path d="M23,58.859a1.048,1.048,0,0,1-.422-.088l-3.038-1.325A32.365,32.365,0,0,1,.125,27.825V13.989a1.051,1.051,0,0,1,.547-.923l21.9-11.992a1.049,1.049,0,0,1,1-.006L46.1,13.06a1.05,1.05,0,0,1,.559.929v4.33h3.081V13.053A1.055,1.055,0,0,1,50.794,12h5.043a4.546,4.546,0,0,1,4.44-3.51,4.615,4.615,0,0,1,.71.055,4.563,4.563,0,1,1-5.15,5.561H51.848v5.265a1.055,1.055,0,0,1-1.054,1.053H30.645A4.55,4.55,0,0,1,26.2,23.934a4.619,4.619,0,0,1-.535-.031,4.562,4.562,0,0,1,0-9.064,4.618,4.618,0,0,1,.536-.031,4.548,4.548,0,0,1,4.439,3.511H44.55v-3.7L23.086,3.194,2.233,14.612V27.825A30.263,30.263,0,0,0,20.385,55.517L23,56.658l3.009-1.3a30.422,30.422,0,0,0,12.17-9.312H30.645A4.55,4.55,0,0,1,26.2,49.557a4.62,4.62,0,0,1-.535-.031,4.562,4.562,0,0,1,0-9.064,4.62,4.62,0,0,1,.535-.031,4.549,4.549,0,0,1,4.441,3.51H50.794a1.055,1.055,0,0,1,1.054,1.053v5.265h3.988a4.548,4.548,0,0,1,4.439-3.511,4.622,4.622,0,0,1,.535.031,4.562,4.562,0,0,1,0,9.064,4.624,4.624,0,0,1-.535.031,4.547,4.547,0,0,1-4.44-3.51H50.792a1.055,1.055,0,0,1-1.053-1.054V46.046H40.8A32.383,32.383,0,0,1,26.841,57.3l-3.422,1.477A1.053,1.053,0,0,1,23,58.859Zm37.279-10a2.457,2.457,0,1,0,2.46,2.457A2.464,2.464,0,0,0,60.279,48.855ZM26.2,42.536A2.457,2.457,0,1,0,28.485,45.9V44.087A2.446,2.446,0,0,0,26.2,42.536Zm0-25.622a2.457,2.457,0,1,0,2.285,3.364V18.464A2.445,2.445,0,0,0,26.2,16.914ZM60.279,10.6a2.457,2.457,0,1,0,2.46,2.457A2.464,2.464,0,0,0,60.279,10.6Z" fill="#e14917"/></g></svg>