<svg xmlns="http://www.w3.org/2000/svg" xmlns:xlink="http://www.w3.org/1999/xlink" width="254.68" height="199.691" viewBox="0 0 254.68 199.691"><defs><linearGradient id="a" x1="0.496" y1="-0.58" x2="0.504" y2="1.58" gradientUnits="objectBoundingBox"><stop offset="0" stop-color="#fff" stop-opacity="0"/><stop offset="0.95" stop-color="#fff"/><stop offset="1" stop-color="#fff"/></linearGradient><linearGradient id="b" x1="0.496" y1="-1.555" x2="0.504" y2="2.555" gradientUnits="objectBoundingBox"><stop offset="0" stop-color="#e14917" stop-opacity="0.631"/><stop offset="0.95" stop-color="#010101"/><stop offset="1" stop-color="#010101"/></linearGradient><linearGradient id="c" y1="0.5" x2="1" y2="0.5" gradientUnits="objectBoundingBox"><stop offset="0" stop-color="#e5c6d6"/><stop offset="0.42" stop-color="#ead4d0"/><stop offset="1" stop-color="#f0e9cb"/></linearGradient><linearGradient id="d" x1="-1.12" y1="1.391" x2="2.12" y2="-0.391" gradientUnits="objectBoundingBox"><stop offset="0" stop-color="#010101" stop-opacity="0"/><stop offset="0.95" stop-color="#010101"/><stop offset="1" stop-color="#010101"/></linearGradient><linearGradient id="e" x1="0.418" y1="1.06" x2="0.582" y2="-0.06" xlink:href="#d"/><linearGradient id="f" x1="0.412" y1="1.05" x2="0.588" y2="-0.05" xlink:href="#d"/><linearGradient id="g" x1="0.466" y1="0.17" x2="0.534" y2="0.83" xlink:href="#d"/><linearGradient id="h" x1="0.39" y1="1.09" x2="0.61" y2="-0.09" xlink:href="#d"/><linearGradient id="i" x1="1.195" y1="0.386" x2="-0.195" y2="0.614" xlink:href="#d"/><linearGradient id="k" x1="0.012" y1="-0.235" x2="0.988" y2="1.235" xlink:href="#d"/><linearGradient id="l" x1="-0.795" y1="0.481" x2="1.795" y2="0.519" xlink:href="#d"/><linearGradient id="m" y1="0.5" x2="1" y2="0.5" gradientUnits="objectBoundingBox"><stop offset="0" stop-color="#e14917"/><stop offset="0.95" stop-color="#fff"/><stop offset="1" stop-color="#fff"/></linearGradient></defs><g transform="translate(-0.93 -0.86)"><rect width="168.12" height="108.54" rx="20.89" transform="translate(46.5 60.19)" fill="#e14917" opacity="0.549"/><rect width="158.63" height="102.42" rx="13.21" transform="translate(50.53 64.39)" fill="#fff"/><rect width="60.09" height="26.01" rx="10.99" transform="translate(3.69 124.27)" fill="#aeced5" opacity="0.141"/><rect width="60.09" height="26.01" rx="10.99" transform="translate(191.3 125.6)" fill="#aeced5" opacity="0.141"/><rect width="60.09" height="26.01" rx="10.99" transform="translate(192.51 66.22)" fill="#aeced5" opacity="0.141"/><rect width="60.66" height="65.46" rx="10.42" transform="translate(66.78 94.11)" fill="#aeced5" opacity="0.11"/><path d="M63.971,112.538s-1.3,5.206,2.867,7.8,20.077-4.43,29.722-5.472,29.472,2.873,29.472,2.873a31.484,31.484,0,0,0-3.4,14.328c.276,7.552.782,13.543,0,14.848s4.43,6.51,5.211,6.772,7.812.78,7.812.78l8.865,13.025,22.547-.482-13.858-45.74L159.9,98.733,97.869,90.657Z" fill="#aeced5" opacity="0.141"/><path d="M51.881,167.914l-31.256,23.51H239.43l-30.558-23.86Z" fill="#aeced5"/><path d="M51.881,167.914l-31.256,23.51H239.43l-30.558-23.86Z" fill="url(#a)"/><path d="M29.58,200.023l-8.955-8.6H239.43l-8.078,9.127Z" fill="#aeced5"/><path d="M29.58,200.023l-8.955-8.6H239.43l-8.078,9.127Z" fill="url(#b)"/><path d="M105.441,187.742l9.31-7.368,34.063-.18,9.834,7.374Z" fill="#aeced5" opacity="0.58"/><path d="M40.641,179.029l177.013-.235-9.479-7.721H51.531Z" fill="#aeced5" opacity="0.58"/><path d="M149.238,154.541c-1.021-1.377-2.817-1.919-4.43-2.535-6.314-2.423-11.291-7.377-15.711-12.483a11.144,11.144,0,0,1-2.505-3.916,5.883,5.883,0,0,1,1.094-5.362,7.115,7.115,0,0,0,.68-.859,4.621,4.621,0,0,0,.46-1.478c.308-1.533,1.024-3.287,2.56-3.6a5.045,5.045,0,0,0,1.019-.2,2.461,2.461,0,0,0,1.057-1.414c.886-2.047,2.357-4.192,4.572-4.466a2.083,2.083,0,0,0,.827-.18c.616-.353.534-1.239.671-1.937.34-1.74,2.481-2.626,4.218-2.255a10.17,10.17,0,0,1,4.444,2.815l5.027,4.591a10.864,10.864,0,0,0,4.563,2.943,1.193,1.193,0,0,0,.918-.055,1.376,1.376,0,0,0,.46-1.014c.629-3.866,7.495-8.136,10.5-7.616-1.838,5.211-3.272,13.438-4.348,20.98,5.106,8.43,12.7,14.788,20.416,20.926a54.377,54.377,0,0,0,6.015,4.37c2.505,1.487,5.262,2.59,7.486,4.467l-32.165.749a7.267,7.267,0,0,1-2.656-.262,7.189,7.189,0,0,1-2.243-1.5q-4.595-4-8.918-8.264A10.053,10.053,0,0,0,149.238,154.541Z" fill="url(#c)"/><path d="M156.723,131.287a16.593,16.593,0,0,1-3.483,7.557,19.269,19.269,0,0,1-4.232,4.5,8.8,8.8,0,0,1-5.826,1.758,6.894,6.894,0,0,1-4.485-2.3,3.271,3.271,0,0,1-.823-1.51c-.243-1.309.73-2.5,1.655-3.457A114.8,114.8,0,0,1,150.515,127.8c1.2-.964,4.535-3.819,6.291-3.144C157.656,124.98,156.884,129.915,156.723,131.287Z" fill="url(#d)"/><path d="M166.387,113.043l-28.949,37.251s-7.559-.524-12.256-4.43,3.653-6.253,3.653-6.253,17.2-17.188,19.552-30.736Z" fill="#aeced5"/><path d="M125.177,145.859a19.353,19.353,0,0,0,7.261,3.516,27.344,27.344,0,0,0,5,.918l28.49-36.594.482-.629L148.4,108.912c-2.334,13.543-19.557,30.759-19.557,30.759S120.518,141.966,125.177,145.859Z" fill="url(#e)"/><path d="M129.879,147.71a12.739,12.739,0,0,0,2.559,1.666,27.378,27.378,0,0,0,5,.918l28.49-36.594-12.816-3c-2.371,13.542-19.557,30.758-19.557,30.758S125.177,143.8,129.879,147.71Z" fill="url(#f)"/><path d="M186.991,91.544a14.169,14.169,0,0,0-9.158-7.084c-18.068-4.347-74.648-20.081-77.929-47.2,0,0-1.043-7.034-9.907-7.034S67.054,114.1,69.4,115.922s10.426-2.084,14.6-5.968a32.461,32.461,0,0,1,31.808-7.033c7.153,2.226,20.186,5.247,32.354,7.891,8.731,1.9,17.029,3.608,22.387,4.692a12.562,12.562,0,0,0,12.144-4.3c3.332-3.976,6.566-10,5.33-17.7C188.024,93.523,187.607,92.691,186.991,91.544Z" fill="#aeced5"/><path d="M92.716,76.72c-6.031,23.535-17.321,40.917-25.258,38.888s-9.478-22.695-3.446-46.229,17.32-40.917,25.257-38.888S98.747,53.185,92.716,76.72Z" fill="#aeced5"/><path d="M92.716,76.72c-6.031,23.535-17.321,40.917-25.258,38.888s-9.478-22.695-3.446-46.229,17.32-40.917,25.257-38.888S98.747,53.185,92.716,76.72Z" fill="url(#g)"/><path d="M84.31,74.692C82.5,81.773,79.1,87,76.712,86.393s-2.852-6.829-1.037-13.909,5.211-12.311,7.6-11.7S86.125,67.612,84.31,74.692Z" fill="url(#h)"/><path d="M83.266,60.776,94.56,62.267s-4.3,27.348-9.125,29.694l-7.692-5.734Z" fill="url(#i)"/><path d="M148.475,121.274a59.47,59.47,0,0,0,5.211,3.485c1.135.762,2.3,1.786,2.385,3.153a3.9,3.9,0,0,1-.524,1.938,10.208,10.208,0,0,1-2.5,3.149,18.787,18.787,0,0,0-2.469,2.117,15.135,15.135,0,0,0-1.2,1.9,25.96,25.96,0,0,1-4.812,5.353,10.67,10.67,0,0,1-1.613,1.309,6.55,6.55,0,0,1-5.661.418,10.143,10.143,0,0,1-4.539-3.6,7.633,7.633,0,0,1-1.724-5.643,9.51,9.51,0,0,1,1.494-3.333,67.632,67.632,0,0,1,7.9-10.293c.758-.807,3.369-4.306,4.572-4.131C145.911,117.2,147.533,120.485,148.475,121.274Z" fill="url(#c)"/><path d="M161.415,96.561s-3.075,13.87-13.271,14.232l25.273,5.743s9.034-.524,10.776-4.169,10.766-16.312-1.9-26.228l-20.337-6.248A32.043,32.043,0,0,1,161.415,96.561Z" fill="url(#k)"/><path d="M101.466,46.9s2.969,32.633-15.991,61.472c0,0,11.3-8.681,25.03-6.772,0,0,7.477-27.435,4.173-35.079S101.466,46.9,101.466,46.9Z" fill="url(#l)"/><path d="M17.61,0H78.68A17.62,17.62,0,0,1,96.3,17.62v6.44A17.62,17.62,0,0,1,78.68,41.68H17.61A17.61,17.61,0,0,1,0,24.07V17.61A17.61,17.61,0,0,1,17.61,0Z" transform="translate(159.31 12.06)" fill="#fff"/><rect width="60.09" height="26.01" rx="10.99" transform="translate(194.84 62.9)" fill="#fff"/><rect width="60.09" height="26.01" rx="10.99" transform="translate(88.59 0.86)" fill="#fff"/><rect width="60.09" height="26.01" rx="10.99" transform="translate(0.93 121.62)" fill="#fff"/><rect width="60.09" height="26.01" rx="10.99" transform="translate(194.4 122.06)" fill="#fff"/><rect width="72.06" height="2.98" rx="1.49" transform="translate(171.93 19.24)" fill="#e14917" opacity="0.11"/><rect width="72.06" height="2.98" rx="1.49" transform="translate(171.93 29.53)" fill="#e14917" opacity="0.11"/><rect width="44.49" height="2.98" rx="1.49" transform="translate(203.47 68.67)" fill="#aeced5" opacity="0.11"/><rect width="44.49" height="2.98" rx="1.49" transform="translate(203.47 78.96)" fill="#aeced5" opacity="0.11"/><rect width="44.49" height="2.98" rx="1.49" transform="translate(203.47 127.73)" fill="#aeced5" opacity="0.11"/><rect width="44.49" height="2.98" rx="1.49" transform="translate(203.47 138.01)" fill="#aeced5" opacity="0.11"/><rect width="44.49" height="2.98" rx="1.49" transform="translate(10.22 127.06)" fill="#aeced5" opacity="0.11"/><rect width="44.49" height="2.98" rx="1.49" transform="translate(10.22 137.34)" fill="#aeced5" opacity="0.11"/><rect width="44.49" height="2.98" rx="1.49" transform="translate(96.55 6.75)" fill="#aeced5" opacity="0.11"/><rect width="44.49" height="2.98" rx="1.49" transform="translate(96.55 17.03)" fill="#aeced5" opacity="0.11"/><rect width="72.06" height="2.98" rx="1.49" transform="translate(171.93 39.81)" fill="#e14917" opacity="0.11"/><path d="M49.955,16.923c.662,1.326,11.286,19.452,11.286,19.452l5.092-3.54L60.782,12.277Z" opacity="0.502" fill="url(#m)"/><path d="M28.482,39.257,45.53,52.084l-3.542,5.532L21.4,51.2Z" opacity="0.502" fill="url(#m)"/><path d="M16.531,87.031l22.134-3.54.226,6.414L17.2,97.2Z" opacity="0.502" fill="url(#m)"/></g></svg>