<svg xmlns="http://www.w3.org/2000/svg" xmlns:xlink="http://www.w3.org/1999/xlink" width="219.912" height="283.725" viewBox="0 0 219.912 283.725"><defs><linearGradient id="a" x1="1.62" y1="1.014" x2="-0.62" y2="-0.014" gradientUnits="objectBoundingBox"><stop offset="0"/><stop offset="0.01"/><stop offset="0.08" stop-opacity="0.69"/><stop offset="0.21" stop-opacity="0.322"/><stop offset="1" stop-opacity="0"/></linearGradient></defs><g transform="translate(-0.608 -0.308)"><path d="M198.16,20.278V248.8a19.985,19.985,0,0,1-19.978,19.96H79.115A19.973,19.973,0,0,1,59.127,248.8V20.278A19.973,19.973,0,0,1,79.1.308h99.078A19.974,19.974,0,0,1,198.16,20.278Z" fill="#aeced5"/><rect width="133.55" height="261.26" rx="12.32" transform="translate(61.86 3.7)" fill="#473f47"/><path d="M191.781,25.192V240.8a18.451,18.451,0,0,1-18.643,18.246H84.228a18.793,18.793,0,0,1-9.272-2.417A18.153,18.153,0,0,1,65.562,240.8V25.192A18.461,18.461,0,0,1,84.228,6.946H99.249V9.6a8.822,8.822,0,0,0,5.606,8.026,9.368,9.368,0,0,0,3.363.649h41.3a8.963,8.963,0,0,0,8.969-8.822V6.946h14.573a18.843,18.843,0,0,1,12.97,5.071A17.991,17.991,0,0,1,191.781,25.192Z" fill="#aeced5"/><path d="M191.781,127.495V190.45H137.208a5.678,5.678,0,0,1-5.694-5.686h0V133.193a5.679,5.679,0,0,1,5.684-5.7Z" fill="#020202" opacity="0.102"/><path d="M2.66,0H43.32a2.66,2.66,0,0,1,2.66,2.66v0a2.65,2.65,0,0,1-2.65,2.65H2.65A2.65,2.65,0,0,1,0,2.66v0A2.66,2.66,0,0,1,2.66,0Z" transform="translate(32.7 181.05)" fill="#e14917"/><path d="M41.941,166.852l-1.222,7.971,3.363.391,3.655-8.441Z" fill="#fcbdba"/><path d="M45.08,174.039a2.7,2.7,0,0,1-.415-.459,1.4,1.4,0,0,1-1.121.146l-1.671-.291a2.832,2.832,0,0,1-.863-.234.123.123,0,0,0-.123,0h0l-.37.694a10.249,10.249,0,0,0-1.043,3.928,36.413,36.413,0,0,0,9.72.941,1.513,1.513,0,0,0,1.39-.582,1.121,1.121,0,0,0,0-.9,2.639,2.639,0,0,0-1.557-1.388c-.863-.369-1.749-.661-2.6-1.12A5.1,5.1,0,0,1,45.08,174.039Z" fill="#aeced5"/><path d="M64.43,169.282l-1.054,7.992,3.363.325,3.487-8.519Z" fill="#fcbdba"/><path d="M178.732,57.734V82.439a12.255,12.255,0,0,1-12.265,12.246h-71.8L65.517,128.11V45.5H166.412a12.244,12.244,0,0,1,12.331,12.168Z" fill="#020202" opacity="0.102"/><rect width="105.73" height="49.2" rx="7.81" transform="translate(70.05 34.98)" fill="#fff"/><path d="M84.294,78.062a2.631,2.631,0,0,1-1.21-.19,2.774,2.774,0,0,1-1.122-1.824c-2.007-6.169-6.143-12.191-12.331-14.038-1.614,6.582-1.491,13.433-1.368,20.228,0,1.813.2,3.884,1.648,4.959a5.609,5.609,0,0,0,3.173.817,42.456,42.456,0,0,0,20.325-4.354c1.906-.941,5.807-4.623,2.174-5.821-1.121-.369-3.531.19-4.7.2Z" fill="#020202" opacity="0.102"/><ellipse cx="8.83" cy="8.82" rx="8.83" ry="8.82" transform="translate(164.99 25.99)" fill="#aeced5"/><ellipse cx="8.83" cy="8.82" rx="8.83" ry="8.82" transform="translate(164.99 25.99)" fill="#020202" opacity="0.278"/><rect width="62.28" height="4.86" rx="2.43" transform="translate(90.92 50.69)" fill="#e14917"/><rect width="62.28" height="4.86" rx="1.55" transform="translate(90.92 63.64)" fill="#e14917"/><path d="M41.649,111.3l4.989,27.739-4.989,29.843,8.094.616,11.793-33.6-4-26.631Z" fill="#473f47"/><path d="M69.587,109.259l8.99,36.918L71.3,171.611l-7.186-.369,1-21.695L52.435,114.487Z" fill="#473f47"/><path d="M94.384,78.644a14.16,14.16,0,0,1,3.442-1.466A1.291,1.291,0,0,1,99,77.256a1.121,1.121,0,0,1,.349.66,4.041,4.041,0,0,1-.191,2.44,25.776,25.776,0,0,0,4.26,1.859,2.238,2.238,0,0,1,1.513,1,1.43,1.43,0,0,1-.437,1.556,3.382,3.382,0,0,1-1.547.694c-3.7.862-9.72,0-10.594-4.411-.19-.963.157-1.12.931-1.69C93.644,79.1,94,78.868,94.384,78.644Z" fill="#fcbdba"/><path d="M66.549,44.569a15.81,15.81,0,0,1,1.6,5.362,5.4,5.4,0,0,1-2.164,4.9,6.335,6.335,0,0,0-1.278.807c-1.345,1.388.2,3.906-.582,5.7a2.659,2.659,0,0,1-3.363,1.243,4.483,4.483,0,0,1-2.49-2.945,13.722,13.722,0,0,1-.459-4l-.135-8.026a10.335,10.335,0,0,1,.808-5.228,5.247,5.247,0,0,1,4.819-2.619C65.3,40.058,65.876,42.991,66.549,44.569Z" fill="#fcbdba"/><path d="M94.574,84.61s-15.4,13.735-16.5,13.735-7.926-8.63-7.926-8.63l-.56,19.545a47.176,47.176,0,0,1-5.93,2.933c-3.364,1.366-7.544,2.631-11.21,2.238-7.489-.682-10.785-3.19-10.785-3.19L46.269,65.2s8.721-6.258,11.7-5.306a18.325,18.325,0,0,0,6.446,0c4.3-.57,8.711,5.306,8.711,5.306l5.716,18.784L92.3,79.215A5.155,5.155,0,0,1,94.574,84.61Z" fill="#fff"/><path d="M68.252,35.928a4.59,4.59,0,0,0-.672-2.888c-1.043-1.444-3.15-1.578-4.889-1.187A18.218,18.218,0,0,0,59.239,33.2a4.835,4.835,0,0,1-2.545.325,9.178,9.178,0,0,0-6.222,2.317c-2.331,2.239-2.892,5.5-3.127,8.564-.258,3.47,1.312,6.335,3.577,8.955,1.961,2.306,5.5,4.568,8.049,1.657A7.269,7.269,0,0,0,60.4,49.819a2.891,2.891,0,0,1-2.589-2.238,2.024,2.024,0,0,1,.684-2.06,1.627,1.627,0,0,1,2.242.548,1.874,1.874,0,0,1,.157.369,9.046,9.046,0,0,0,.784-2.328c.3-.772,1.278-1.444,1.917-.928.37.3.594.94,1.065.839a.853.853,0,0,0,.393-.291,12.624,12.624,0,0,0,2.331-3.056,11.184,11.184,0,0,0,.863-4.231C68.241,36.3,68.252,36.107,68.252,35.928Z" fill="#fc682d"/><path d="M37.984,34.181a7.974,7.974,0,0,0-8.06,4.265c-1.783,3.638-.5,7.925-.213,11.966a6.289,6.289,0,0,1-3.677,6.94c-2.858,1.713-6.132,2.866-8.419,5.3a11.785,11.785,0,0,0-3,7.231,5.586,5.586,0,0,0,.56,3.269,6.373,6.373,0,0,0,1.917,1.836,19.58,19.58,0,0,0,14.764,3.47c5.089-1.04,9.674-4.981,10.751-10.074,1.121-5.373-1.6-10.712-2.634-16.1a4.836,4.836,0,0,1,.414-3.817c.852-1.12,2.444-1.411,3.666-2.139C50.753,42.4,42.894,34.875,37.984,34.181Z" fill="#fc682d"/><rect width="5.19" height="5.18" rx="1.62" transform="translate(44.87 39.41)" fill="#aeced5"/><path d="M67.714,176.413a2.759,2.759,0,0,1-.425-.459,1.416,1.416,0,0,1-1.121.168l-1.682-.247a2.822,2.822,0,0,1-.863-.234H63.5l-.347.7a10.3,10.3,0,0,0-.965,3.952,36.044,36.044,0,0,0,9.742.727,1.469,1.469,0,0,0,1.368-.6,1.12,1.12,0,0,0,0-.9,2.7,2.7,0,0,0-1.58-1.354c-.874-.347-1.771-.627-2.623-1.03a5.83,5.83,0,0,1-1.38-.727Z" fill="#aeced5"/><path d="M73.33,284.033H68.162V187.069L35.954,273.957v.414h-.146l-3.586,9.661H27.065l3.586-9.661H9.352l-3.586,9.661H.608L36.817,186.32h5.158l-4.126,11.115h21.3l4.126-11.115H73.33v97.712ZM16.123,256.047,10.765,270.6H32.042l5.382-14.551h-21.3Zm6.771-18.258-5.37,14.486h21.3l5.358-14.486Zm6.782-18.28-5.369,14.485h21.3l5.369-14.485ZM36.459,201.2l-5.381,14.553h21.3L57.737,201.2H36.459Z" fill="#aeced5"/><path d="M73.33,284.033H68.162V187.069L35.954,273.957v.414h-.146l-3.586,9.661H27.065l3.586-9.661H9.352l-3.586,9.661H.608L36.817,186.32h5.158l-4.126,11.115h21.3l4.126-11.115H73.33v97.712ZM16.123,256.047,10.765,270.6H32.042l5.382-14.551h-21.3Zm6.771-18.258-5.37,14.486h21.3l5.358-14.486Zm6.782-18.28-5.369,14.485h21.3l5.369-14.485ZM36.459,201.2l-5.381,14.553h21.3L57.737,201.2H36.459Z" fill="url(#a)"/><rect width="89.01" height="62.94" rx="3.63" transform="translate(131.51 120.72)" fill="#fff"/><rect width="40.75" height="6.21" rx="1.98" transform="translate(82.9 128.11)" fill="#e14917" opacity="0.102"/><rect width="40.75" height="6.21" rx="1.98" transform="translate(82.9 140.43)" fill="#e14917" opacity="0.102"/><rect width="40.75" height="6.21" rx="1.98" transform="translate(82.9 152.76)" fill="#e14917" opacity="0.102"/><path d="M206.915,174.969H145.123V129.42h1.121v44.429h60.671Z" fill="#aeced5"/><path d="M145.852,158.6l-.584-.963,15.583-9.559,22.9,3.537,20.236-11.664.56.963-20.581,11.866-.191-.033-22.69-3.5Z" fill="#aeced5"/><circle cx="2.44" cy="2.44" r="2.44" transform="translate(159.22 146.33)" fill="#aeced5"/><circle cx="2.44" cy="2.44" r="2.44" transform="translate(181.43 149.75)" fill="#aeced5"/><circle cx="2.44" cy="2.44" r="2.44" transform="translate(201.41 138.36)" fill="#aeced5"/><circle cx="2.44" cy="2.44" r="2.44" transform="translate(159.22 146.33)" fill="#ff3f00" opacity="0.278"/><circle cx="2.44" cy="2.44" r="2.44" transform="translate(181.43 149.75)" fill="#ff3f00" opacity="0.278"/><circle cx="2.44" cy="2.44" r="2.44" transform="translate(201.41 138.36)" fill="#ff3f00" opacity="0.278"/></g></svg>