<svg xmlns="http://www.w3.org/2000/svg" xmlns:xlink="http://www.w3.org/1999/xlink" width="113.704" height="121.01" viewBox="0 0 113.704 121.01"><defs><filter id="a" x="0" y="0" width="113.704" height="121.01" filterUnits="userSpaceOnUse"><feOffset dy="3" input="SourceAlpha"/><feGaussianBlur stdDeviation="3.5" result="b"/><feFlood flood-opacity="0.161"/><feComposite operator="in" in2="b"/><feComposite in="SourceGraphic"/></filter></defs><g transform="translate(-217.434 -735.499)"><g transform="matrix(1, 0, 0, 1, 217.43, 735.5)" filter="url(#a)"><path d="M248.656,743h51.261a20.9,20.9,0,0,1,20.722,21.114V821.9a20.9,20.9,0,0,1-20.722,21.112H248.656A20.9,20.9,0,0,1,227.934,821.9V764.113A20.9,20.9,0,0,1,248.656,743Z" transform="translate(-217.43 -735.5)" fill="#fff"/></g><ellipse cx="31.63" cy="32.78" rx="31.63" ry="32.78" transform="translate(242.11 764.11)" fill="#f2a58c" opacity="0.239"/><path d="M284.909,823.768a19.66,19.66,0,0,1-.007-27.454,18.809,18.809,0,0,1,26.951,0,19.677,19.677,0,0,1,0,27.46,18.793,18.793,0,0,1-26.944-.006Zm-3.049-13.723a16.52,16.52,0,1,0,16.519-16.828A16.695,16.695,0,0,0,281.859,810.045Zm9.968,7.75a1.274,1.274,0,0,1-.934-.7l-2.54-5.177,2.273-1.156,1.746,3.57,14-14.264,1.8,1.831-15.244,15.534a1.265,1.265,0,0,1-.9.38A1.315,1.315,0,0,1,291.828,817.795Zm-41.747-3.829a6.274,6.274,0,0,1-4.507-1.9,6.56,6.56,0,0,1-.428-8.7,6.287,6.287,0,0,1,8.451-1.3l3.227-3.288,1.8,1.83-3.226,3.289a6.575,6.575,0,0,1,.985,4.556,6.506,6.506,0,0,1-2.267,4.054,6.313,6.313,0,0,1-4.027,1.464Zm-3.794-6.51a3.812,3.812,0,1,0,7.622,0,3.925,3.925,0,0,0-.38-1.665l-2.534,2.578-1.8-1.83,2.53-2.579a3.7,3.7,0,0,0-1.633-.388A3.852,3.852,0,0,0,246.287,807.457Zm30.492,3.884H271.7v-2.59h5.08v2.589h0Zm-7.629,0H260.26v-2.59h8.89v2.589h0Zm7.629-5.18H260.26V803.57h16.52v2.588h0Zm-31.206-9.627a6.566,6.566,0,0,1-.428-8.7,6.289,6.289,0,0,1,8.451-1.306l3.227-3.288,1.8,1.831-3.226,3.288a6.556,6.556,0,0,1-1.282,8.609,6.285,6.285,0,0,1-8.537-.436Zm.714-4.611a3.812,3.812,0,1,0,7.622,0,3.9,3.9,0,0,0-.38-1.662l-2.534,2.577-1.8-1.83,2.53-2.58a3.75,3.75,0,0,0-1.633-.388A3.852,3.852,0,0,0,246.287,791.922Zm35.573,3.888H271.7V793.22h10.16v2.588h0Zm-12.71,0H260.26V793.22h8.89v2.588h0Zm20.329-5.179H284.4v-2.59h5.08v2.589h0Zm-7.619,0h-21.6v-2.59h21.6v2.589h0ZM245.573,781a6.579,6.579,0,0,1-.428-8.7,6.289,6.289,0,0,1,8.451-1.306l3.227-3.289,1.8,1.831-3.226,3.289a6.579,6.579,0,0,1-1.282,8.61,6.286,6.286,0,0,1-8.537-.437Zm.714-4.609a3.812,3.812,0,1,0,7.622,0,3.908,3.908,0,0,0-.38-1.663l-2.534,2.577-1.8-1.83,2.53-2.579a3.719,3.719,0,0,0-1.633-.388A3.852,3.852,0,0,0,246.287,776.389Zm43.2,3.882H271.7v-2.59h17.79v2.589h0Zm-20.34,0H260.26v-2.59h8.89v2.589h0Zm27.949-5.18H284.4V772.5h12.7v2.589h0Zm-15.24,0h-21.6V772.5h21.6v2.589h0ZM256.449,759.56H253.91v-2.59h2.54v2.589h0Zm-5.08,0H248.83v-2.59h2.54v2.589h0Zm-5.09,0H243.74v-2.59h2.54v2.589h0Z" fill="#797979"/></g></svg>