<svg xmlns="http://www.w3.org/2000/svg" xmlns:xlink="http://www.w3.org/1999/xlink" width="113.704" height="121.01" viewBox="0 0 113.704 121.01"><defs><filter id="a" x="0" y="0" width="113.704" height="121.01" filterUnits="userSpaceOnUse"><feOffset dy="3" input="SourceAlpha"/><feGaussianBlur stdDeviation="3.5" result="b"/><feFlood flood-opacity="0.161"/><feComposite operator="in" in2="b"/><feComposite in="SourceGraphic"/></filter></defs><g transform="translate(-566.675 -735.499)"><g transform="matrix(1, 0, 0, 1, 566.68, 735.5)" filter="url(#a)"><path d="M597.9,743h51.26a20.9,20.9,0,0,1,20.722,21.114V821.9a20.9,20.9,0,0,1-20.722,21.112H597.9A20.9,20.9,0,0,1,577.175,821.9V764.113A20.9,20.9,0,0,1,597.9,743Z" transform="translate(-566.68 -735.5)" fill="#fff"/></g><ellipse cx="32.17" cy="32.78" rx="32.17" ry="32.78" transform="translate(590.27 763)" fill="#f2a58c" opacity="0.239"/><path d="M607.655,821.9H586.4a1.613,1.613,0,0,1,0-3.182h21.255c.617-2.88,2.806-4.892,5.322-4.892s4.7,2.012,5.32,4.892h37.115a1.613,1.613,0,0,1,0,3.182H618.3c-.617,2.88-2.805,4.892-5.32,4.892S608.272,824.777,607.655,821.9Zm2.535-1.586a2.829,2.829,0,1,0,2.79-3.3A3.081,3.081,0,0,0,610.19,820.31Zm28.051-20a1.623,1.623,0,0,1,0-3.183h7.486a1.47,1.47,0,0,0,1.3-1.592v-25.49a1.47,1.47,0,0,0-1.3-1.591H596.083a1.47,1.47,0,0,0-1.3,1.591v25.49a1.47,1.47,0,0,0,1.3,1.592h36.945a1.624,1.624,0,0,1,0,3.183H596.083c-2.156,0-3.91-2.143-3.91-4.775v-25.49c0-2.633,1.753-4.774,3.91-4.774h49.644c2.156,0,3.91,2.141,3.91,4.774v25.49c0,2.633-1.753,4.775-3.91,4.775Zm-8.317-10.79a1.614,1.614,0,0,1,.107-2.249,1.546,1.546,0,0,1,2.209.111,6.114,6.114,0,0,0,4.535,1.946,3.241,3.241,0,0,0,3.326-2.3c.2-1.127-.694-2.152-2.45-2.811-2.519-.947-4.754-1.96-4.847-2a1.572,1.572,0,0,1-.217-.119,4.846,4.846,0,0,1-2.1-4.759,5.338,5.338,0,0,1,3.828-4.328c4.217-1.3,7.7,1.631,7.844,1.756a1.609,1.609,0,0,1,.191,2.241,1.541,1.541,0,0,1-2.2.2c-.054-.043-2.377-1.936-4.938-1.149a2.182,2.182,0,0,0-1.636,1.733,1.645,1.645,0,0,0,.629,1.576c.508.228,2.442,1.085,4.528,1.867,3.844,1.445,4.815,4.231,4.443,6.357a6.362,6.362,0,0,1-6.4,4.919A9.263,9.263,0,0,1,629.924,789.524Zm-14.027,2.51a1.926,1.926,0,0,1-.511-1.4V774.75a1.631,1.631,0,0,1,.456-1.128,1.543,1.543,0,0,1,1.107-.467h4.49c4.765,0,7.965,3.885,7.965,9.669,0,5.5-3.283,9.552-7.807,9.633-1.279.023-4.473.036-4.61.036h-.041A1.426,1.426,0,0,1,615.9,792.034Zm2.625-9.229c0,1.241.007,3.586.013,5.468v.012l0,1.016c.639,0,2.214-.013,3.007-.028,3.254-.058,4.735-3.384,4.735-6.45,0-3.135-1.272-6.484-4.84-6.484h-2.926C618.52,779.68,618.522,781.856,618.522,782.806ZM598.7,791.757a1.469,1.469,0,0,1-.129-1.4l6.135-16.411a.317.317,0,0,0,.013-.034,1.92,1.92,0,0,1,3.577-.005l.01.025.007.019,6.079,16.412a1.466,1.466,0,0,1-.13,1.4,1.759,1.759,0,0,1-1.42.733,1.408,1.408,0,0,1-1.373-1.005l-1.131-3.057h-7.7l-1.146,3.061a1.414,1.414,0,0,1-1.373,1A1.756,1.756,0,0,1,598.7,791.757Zm5.126-6.513h5.332L606.5,778.08Z" fill="#797979"/></g></svg>