<svg xmlns="http://www.w3.org/2000/svg" xmlns:xlink="http://www.w3.org/1999/xlink" width="113.704" height="121.01" viewBox="0 0 113.704 121.01"><defs><filter id="a" x="0" y="0" width="113.704" height="121.01" filterUnits="userSpaceOnUse"><feOffset dy="3" input="SourceAlpha"/><feGaussianBlur stdDeviation="3.5" result="b"/><feFlood flood-opacity="0.161"/><feComposite operator="in" in2="b"/><feComposite in="SourceGraphic"/></filter></defs><g transform="translate(-390.555 -735.499)"><g transform="matrix(1, 0, 0, 1, 390.55, 735.5)" filter="url(#a)"><path d="M421.776,743h51.26a20.9,20.9,0,0,1,20.722,21.114V821.9a20.9,20.9,0,0,1-20.722,21.112h-51.26A20.9,20.9,0,0,1,401.055,821.9V764.113A20.9,20.9,0,0,1,421.776,743Z" transform="translate(-390.55 -735.5)" fill="#fff"/></g><ellipse cx="32.17" cy="32.78" rx="32.17" ry="32.78" transform="translate(413.06 766.34)" fill="#f2a58c" opacity="0.239"/><path d="M433.74,828.847l-7.536-13.3a10.2,10.2,0,0,1-3.871.759,10.4,10.4,0,0,1-5.169-1.38,10.541,10.541,0,0,1-3.918-3.953A10.79,10.79,0,0,1,417.08,796.4l12.706-7.475,19.546-25.367a4.448,4.448,0,0,1,3.779-2.109h.058A4.439,4.439,0,0,1,457,763.733l5.52,9.742,5.757-.351.089,0a1.5,1.5,0,0,1,1.3.761l2.992,5.28a1.542,1.542,0,0,1-.048,1.6l-3.177,4.9,4.973,8.776a4.609,4.609,0,0,1,.035,4.51,4.456,4.456,0,0,1-3.675,2.342l-25.81,5.159-.738.147-2.11.422,1.947,3.434a1.545,1.545,0,0,1-.549,2.083l-3.886,2.287,4.489,7.923a6.169,6.169,0,0,1-2.191,8.33,5.88,5.88,0,0,1-2.977.816A5.993,5.993,0,0,1,433.74,828.847Zm-4.89-14.728,7.48,13.2a3,3,0,0,0,2.6,1.524,2.935,2.935,0,0,0,1.49-.408,3.081,3.081,0,0,0,1.1-4.164l-.012-.02-7.471-13.184Zm-10.273-15.08a7.7,7.7,0,0,0-2.738,10.413,7.487,7.487,0,0,0,6.491,3.809,7.366,7.366,0,0,0,3.727-1.019l11.663-6.861-7.481-13.2Zm18.047,10.508,1.5,2.639,2.592-1.524-1.5-2.641Zm-4.036-19.319,7.937,14.006,26.1-5.215-17.3-30.524Zm19.248-25a2.73,2.73,0,0,1-.219.3c-.068.087-.16.207-.293.382L469.732,798.4c.167-.031.288-.057.386-.076a2.212,2.212,0,0,1,.435-.065,1.481,1.481,0,0,0,1.259-.764,1.531,1.531,0,0,0,0-1.522l-17.4-30.712a1.459,1.459,0,0,0-1.276-.761H453.1A1.454,1.454,0,0,0,451.835,765.227Zm12.357,11.2,3.565,6.289,1.844-2.845-2.068-3.649Zm-45.761,31.5a1.539,1.539,0,0,1,.546-2.083,1.481,1.481,0,0,1,2.043.558,1.486,1.486,0,0,0,2.046.559l2.592-1.525a1.481,1.481,0,0,1,2.043.557,1.542,1.542,0,0,1-.549,2.083l-2.59,1.525a4.4,4.4,0,0,1-2.236.612A4.476,4.476,0,0,1,418.431,807.927Zm66.145-24.486-5.78-1.578A1.528,1.528,0,0,1,477.737,780a1.494,1.494,0,0,1,1.834-1.077l5.781,1.578a1.528,1.528,0,0,1,1.058,1.867,1.5,1.5,0,0,1-1.444,1.13A1.473,1.473,0,0,1,484.576,783.441Zm-7.267-11.932a1.541,1.541,0,0,1,.579-2.074l8.339-4.726a1.479,1.479,0,0,1,2.033.589,1.54,1.54,0,0,1-.58,2.075l-8.338,4.726a1.466,1.466,0,0,1-.727.194A1.488,1.488,0,0,1,477.31,771.509Zm-6.978-4.582a1.529,1.529,0,0,1-1.059-1.867l1.55-5.891a1.494,1.494,0,0,1,1.834-1.076,1.527,1.527,0,0,1,1.057,1.867l-1.55,5.891a1.5,1.5,0,0,1-1.445,1.13A1.468,1.468,0,0,1,470.332,766.927Z" fill="#797979"/></g></svg>