<svg xmlns="http://www.w3.org/2000/svg" width="85.951" height="85.94" viewBox="0 0 85.951 85.94"><path d="M855.536,3078.565a5.932,5.932,0,0,1-5.924-5.927v-21.764a1.261,1.261,0,0,1,2.523,0v21.764a3.406,3.406,0,0,0,3.4,3.4h42.529a3.406,3.406,0,0,0,3.4-3.4v-35.6H852.134v8.466a1.261,1.261,0,0,1-2.523,0v-16.389a5.932,5.932,0,0,1,5.924-5.927h42.529a5.932,5.932,0,0,1,5.925,5.927v43.528a5.932,5.932,0,0,1-5.925,5.927Zm-3.4-49.454v5.4h49.331v-5.4a3.406,3.406,0,0,0-3.4-3.4H855.536A3.406,3.406,0,0,0,852.134,3029.111Zm-28.8,43.165a5.3,5.3,0,0,1-5.3-5.3v-51.864a1.261,1.261,0,1,1,2.523,0v51.864a2.778,2.778,0,0,0,2.773,2.776h22.5a1.262,1.262,0,0,1,0,2.524Zm36.032-4.838a1.261,1.261,0,1,1,0-2.523h34.87a1.261,1.261,0,1,1,0,2.523Zm26.977-10.893a1.261,1.261,0,0,1,0-2.523h5.309a1.323,1.323,0,0,0,1.322-1.323v-5.354a1.324,1.324,0,0,0-1.322-1.322h-29.7a1.324,1.324,0,0,0-1.322,1.322v5.354a1.324,1.324,0,0,0,1.322,1.323h19.021a1.261,1.261,0,1,1,0,2.523H861.948a3.85,3.85,0,0,1-3.845-3.846v-5.354a3.85,3.85,0,0,1,3.845-3.845h29.7a3.85,3.85,0,0,1,3.845,3.845v5.354a3.849,3.849,0,0,1-3.845,3.846Zm-56.578-2.578a1.262,1.262,0,1,1,0-2.524h12.85a1.262,1.262,0,0,1,0,2.524Zm0-9.457a1.261,1.261,0,1,1,0-2.522h12.85a1.261,1.261,0,1,1,0,2.522Zm1.533-7.869a2.8,2.8,0,0,1-2.794-2.8v-15.729a2.8,2.8,0,0,1,2.794-2.795h53.467a1.261,1.261,0,1,1,0,2.522H831.3a.274.274,0,0,0-.274.273v15.729a.274.274,0,0,0,.274.272h11.359a1.262,1.262,0,0,1,0,2.524Zm63.848-17.24v-11.95H820.561v2.286a1.261,1.261,0,1,1-2.523,0v-11.813a5.3,5.3,0,0,1,5.3-5.3h69.035a5.3,5.3,0,0,1,5.3,5.3V3019.4a1.26,1.26,0,1,1-2.521,0Zm-74.584-21.478v7h74.584v-7a2.78,2.78,0,0,0-2.776-2.777H823.333A2.778,2.778,0,0,0,820.561,2997.924Zm22.746,3.313a1.262,1.262,0,0,1,0-2.523h.947a1.262,1.262,0,1,1,0,2.523Zm-8.77,0a1.262,1.262,0,1,1,0-2.523h.946a1.262,1.262,0,0,1,0,2.523Zm-8.771,0a1.262,1.262,0,0,1,0-2.523h.946a1.262,1.262,0,1,1,0,2.523Z" transform="translate(-818.038 -2992.625)" fill="#e14917"/></svg>