<svg xmlns="http://www.w3.org/2000/svg" xmlns:xlink="http://www.w3.org/1999/xlink" preserveAspectRatio="none" width="304.988" height="292.234" viewBox="0 0 304.988 292.234"><defs><filter id="a" x="0" y="8.382" width="296.586" height="283.853" filterUnits="userSpaceOnUse"><feOffset dy="3" input="SourceAlpha"/><feGaussianBlur stdDeviation="3.5" result="b"/><feFlood flood-color="#e14917"/><feComposite operator="in" in2="b"/><feComposite in="SourceGraphic"/></filter><filter id="c" x="8.401" y="0" width="296.587" height="283.852" filterUnits="userSpaceOnUse"><feOffset dy="3" input="SourceAlpha"/><feGaussianBlur stdDeviation="3.5" result="d"/><feFlood flood-color="#e14917"/><feComposite operator="in" in2="d"/><feComposite in="SourceGraphic"/></filter></defs><g transform="translate(-218.493 -2046.282)"><g transform="matrix(1, 0, 0, 1, 218.49, 2046.28)" filter="url(#a)"><path d="M377.5,2076.433a312.224,312.224,0,0,0,20.591,25.19c67.7,74.1,106.484,29.086,106.484,84.165,0,60.395-78.949,20.942-127.075,109.355s-205.174-41.5-127.113-104.457c59.322-47.843,45.318-123.418,75.653-122.776C335.218,2068.1,358.2,2050.3,377.5,2076.433Z" transform="translate(-218.49 -2046.28)" fill="#9a9999" opacity="0.122"/></g><g transform="matrix(1, 0, 0, 1, 218.49, 2046.28)" filter="url(#c)"><path d="M385.906,2068.052a311.864,311.864,0,0,0,20.591,25.189c67.7,74.1,106.484,29.084,106.484,84.165,0,60.395-78.949,20.942-127.075,109.355S180.732,2245.255,258.791,2182.3c59.325-47.843,45.32-123.419,75.655-122.776C343.62,2059.719,366.6,2041.914,385.906,2068.052Z" transform="translate(-218.49 -2046.28)" fill="#9a9999" opacity="0.122"/></g></g></svg>