<svg xmlns="http://www.w3.org/2000/svg" width="59.457" height="52.503" viewBox="0 0 59.457 52.503"><path d="M401.107,1055.894l-.934-14.853-4.674-.929v-9.471l-2.316,17.826H382.906l-.935-13-3.738-1.856v-7.427a5.587,5.587,0,0,1,5.606-5.57h7.475a5.621,5.621,0,0,1,5.072,3.192l-.125.964a7.481,7.481,0,0,1,6.713-4.157h7.475a7.48,7.48,0,0,1,6.715,4.161l-.126-.968a5.62,5.62,0,0,1,5.071-3.192h7.475a5.587,5.587,0,0,1,5.605,5.57v7.427l-3.737,1.856-.934,13H420.241l-2.316-17.836v9.481l-4.672.929-.934,14.853Zm20.123-41.1a5.5,5.5,0,1,1,5.47,4.94A5.225,5.225,0,0,1,421.23,1014.79Zm-21.89-1.98a7.481,7.481,0,1,1,7.46,6.92A7.2,7.2,0,0,1,399.34,1012.81Zm-16.92,1.98a5.5,5.5,0,1,1,5.47,4.94A5.225,5.225,0,0,1,382.42,1014.79Z" transform="translate(-376.983 -1004.64)" fill="none" stroke="#797979" stroke-linecap="round" stroke-width="2.5"/></svg>