<svg xmlns="http://www.w3.org/2000/svg" width="23.25" height="23.253" viewBox="0 0 23.25 23.253"><path d="M663.221,151.484a.681.681,0,0,1-.681-.681,3.451,3.451,0,0,1,.992-2.425,3.526,3.526,0,0,1,.305-.276,8.631,8.631,0,0,0-2.46-5.036.683.683,0,0,1-.086-.86l5.45-8.175h0l.005-.009a.682.682,0,0,1,1.091-.04l.03.04a.032.032,0,0,0,.006.009h0l5.449,8.175a.683.683,0,0,1-.086.86,8.631,8.631,0,0,0-2.46,5.036,3.516,3.516,0,0,1,.305.276,3.451,3.451,0,0,1,.992,2.425.681.681,0,0,1-.681.681Zm.8-1.363H670.6a2.081,2.081,0,0,0-1.928-1.408h-2.724A2.079,2.079,0,0,0,664.018,150.121Zm4.651-2.77a3.346,3.346,0,0,1,.829.1,10,10,0,0,1,2.39-4.946l-3.9-5.852v4a2.043,2.043,0,1,1-1.362,0v-4l-3.9,5.852a10,10,0,0,1,2.39,4.946,3.352,3.352,0,0,1,.829-.1Zm-2.043-4.769a.681.681,0,1,0,.681-.681A.681.681,0,0,0,666.626,142.582Zm6.811-2.725a2.046,2.046,0,0,1,1.341-1.919,7.607,7.607,0,0,0-5.641-6.756,2.042,2.042,0,0,1-3.66,0,7.607,7.607,0,0,0-5.641,6.756,2.045,2.045,0,1,1-1.364-.014,8.951,8.951,0,0,1,4.13-6.979h-2.832v.69a.681.681,0,0,1-.681.681h-2.724a.681.681,0,0,1-.681-.681v-2.725a.681.681,0,0,1,.681-.68h2.724a.681.681,0,0,1,.681.68v.682h5.612a2.043,2.043,0,0,1,3.853,0h5.612v-.682a.681.681,0,0,1,.681-.68h2.724a.681.681,0,0,1,.681.68v2.725a.681.681,0,0,1-.681.681h-2.724a.681.681,0,0,1-.681-.681v-.681h-2.832a8.94,8.94,0,0,1,4.131,6.97,2.043,2.043,0,1,1-2.706,1.932Zm1.363,0a.681.681,0,1,0,.68-.681A.681.681,0,0,0,674.8,139.856Zm-16.348,0a.681.681,0,1,0,.681-.681A.681.681,0,0,0,658.453,139.856Zm17.755-8.9h1.362v-1.362h-1.362Zm-9.581-.681a.681.681,0,1,0,.681-.68A.681.681,0,0,0,666.626,130.273Zm-9.581.681h1.363v-1.362h-1.363Z" transform="translate(-655.682 -128.23)" fill="#c0461e" opacity="0.502"/></svg>