<svg xmlns="http://www.w3.org/2000/svg" xmlns:xlink="http://www.w3.org/1999/xlink" width="269.184" height="194.644" viewBox="0 0 269.184 194.644"><defs><linearGradient id="a" x1="0.51" y1="1" x2="0.49" gradientUnits="objectBoundingBox"><stop offset="0" stop-color="#fff" stop-opacity="0"/><stop offset="0.13" stop-color="#fff" stop-opacity="0.231"/><stop offset="0.23" stop-color="#fff" stop-opacity="0.412"/><stop offset="0.35" stop-color="#fff" stop-opacity="0.588"/><stop offset="0.48" stop-color="#fff" stop-opacity="0.741"/><stop offset="0.6" stop-color="#fff" stop-opacity="0.851"/><stop offset="0.72" stop-color="#fff" stop-opacity="0.929"/><stop offset="0.84" stop-color="#fff" stop-opacity="0.98"/><stop offset="0.95" stop-color="#fff"/><stop offset="1" stop-color="#fff"/></linearGradient><linearGradient id="b" x1="1.375" y1="1.96" x2="-0.375" y2="-0.96" gradientUnits="objectBoundingBox"><stop offset="0" stop-color="#010101" stop-opacity="0"/><stop offset="0.95" stop-color="#e14917"/><stop offset="1" stop-color="#e14917"/></linearGradient><filter id="c" x="0" y="0" width="269.184" height="194.644" filterUnits="userSpaceOnUse"><feOffset dy="3" input="SourceAlpha"/><feGaussianBlur stdDeviation="3.5" result="d"/><feFlood flood-opacity="0.161"/><feComposite operator="in" in2="d"/><feComposite in="SourceGraphic"/></filter><linearGradient id="e" x1="0.394" y1="1.12" x2="0.606" y2="-0.12" gradientUnits="objectBoundingBox"><stop offset="0" stop-color="#797979" stop-opacity="0.188"/><stop offset="0.13" stop-color="#fff" stop-opacity="0.231"/><stop offset="0.23" stop-color="#fff" stop-opacity="0.412"/><stop offset="0.35" stop-color="#fff" stop-opacity="0.588"/><stop offset="0.48" stop-color="#fff" stop-opacity="0.741"/><stop offset="0.6" stop-color="#fff" stop-opacity="0.851"/><stop offset="0.72" stop-color="#fff" stop-opacity="0.929"/><stop offset="0.84" stop-color="#fff" stop-opacity="0.98"/><stop offset="0.95" stop-color="#fff"/><stop offset="1" stop-color="#fff"/></linearGradient><linearGradient id="f" x1="0.513" y1="-8.79" x2="0.487" y2="9.79" gradientUnits="objectBoundingBox"><stop offset="0" stop-color="#9a9999"/><stop offset="0.199" stop-color="#62200b" stop-opacity="0.439"/><stop offset="0.95" stop-color="#797979"/><stop offset="1" stop-color="#e14917"/></linearGradient><linearGradient id="g" x1="-0.04" y1="-1.235" x2="1.04" y2="2.235" xlink:href="#a"/><linearGradient id="h" x1="-1.28" y1="1.516" x2="2.28" y2="-0.516" gradientUnits="objectBoundingBox"><stop offset="0" stop-color="#010101" stop-opacity="0"/><stop offset="0.95" stop-color="#010101"/><stop offset="1" stop-color="#010101"/></linearGradient><linearGradient id="i" x1="0.493" y1="-2.59" x2="0.507" y2="3.59" xlink:href="#a"/><linearGradient id="k" x1="1.26" y1="-0.001" x2="-0.26" y2="1.001" xlink:href="#h"/><linearGradient id="l" x1="1.39" y1="0.068" x2="-0.39" y2="0.932" xlink:href="#h"/><linearGradient id="m" x1="0.335" y1="0.512" x2="0.665" y2="0.488" xlink:href="#h"/><linearGradient id="n" x1="0.38" y1="0.865" x2="0.62" y2="0.135" xlink:href="#a"/><linearGradient id="o" x1="0.453" y1="0.685" x2="0.547" y2="0.315" xlink:href="#a"/><linearGradient id="p" x1="1.013" y1="-3.895" x2="-0.013" y2="4.895" xlink:href="#h"/><linearGradient id="q" x1="0.379" y1="-1.255" x2="0.621" y2="2.255" xlink:href="#h"/><linearGradient id="r" x1="1.26" y1="0" x2="-0.26" y2="1" xlink:href="#h"/><linearGradient id="s" x1="1.39" y1="0.067" x2="-0.39" y2="0.933" xlink:href="#h"/></defs><g transform="translate(3.694 1.172)"><path d="M45.356,6.328c-4.739,4-9.26,8.236-13.8,12.43Q19.2,30.23,6.812,41.7V14.064a7.724,7.724,0,0,1,7.74-7.736Z" fill="url(#a)"/><g transform="matrix(1, 0, 0, 1, -3.69, -1.17)" filter="url(#c)"><path d="M254.99,34.141v138.1a7.712,7.712,0,0,1-1.983,5.178,8.041,8.041,0,0,1-2.06,1.627.057.057,0,0,0-.047.031,7.818,7.818,0,0,1-3.643.9H20.227c-5.544-7.094-9.035-15.535-13.421-23.445V41.7Q19.164,30.224,31.551,18.758c4.539-4.211,9.082-8.421,13.8-12.43H220.732c9.477,7.478,18.953,14.966,28.271,22.6C251.022,30.62,253.074,32.309,254.99,34.141Z" transform="translate(3.69 1.17)" opacity="0.561" fill="url(#b)"/></g><rect width="248.18" height="173.66" rx="15.18" fill="#aeced5"/><path d="M248.189,7.744V165.922a7.739,7.739,0,0,1-7.74,7.731H7.744A7.725,7.725,0,0,1,0,165.922V7.744A7.724,7.724,0,0,1,7.739.013H240.444a7.737,7.737,0,0,1,7.746,7.731Z" fill="url(#e)"/><path d="M248.189,7.744v10.43H0V7.744A7.724,7.724,0,0,1,7.739.013H240.444a7.737,7.737,0,0,1,7.746,7.731Z" fill="#aeced5" opacity="0.239"/><path d="M248.189,7.744v10.43H0V7.744A7.724,7.724,0,0,1,7.739.013H240.444a7.737,7.737,0,0,1,7.746,7.731Z" fill="#aeced5"/><path d="M248.189,7.744v10.43H0V7.744A7.724,7.724,0,0,1,7.739.013H240.444a7.737,7.737,0,0,1,7.746,7.731Z" fill="url(#f)"/><rect width="69.37" height="11.67" rx="5.83" transform="translate(15.56 49.93)" fill="#e14917" opacity="0.239"/><path d="M5.825,0h28.84A5.835,5.835,0,0,1,40.5,5.835v0a5.835,5.835,0,0,1-5.835,5.835H5.825A5.825,5.825,0,0,1,0,5.845v-.02A5.825,5.825,0,0,1,5.825,0Z" transform="translate(15.56 129.32)" fill="#aeced5"/><path d="M5.825,0h28.84A5.835,5.835,0,0,1,40.5,5.835v0a5.835,5.835,0,0,1-5.835,5.835H5.825A5.825,5.825,0,0,1,0,5.845v-.02A5.825,5.825,0,0,1,5.825,0Z" transform="translate(15.56 129.32)" fill="#e14917"/><rect width="40.29" height="5.92" rx="2.96" transform="translate(17.83 66.53)" fill="#e14917" opacity="0.239"/><path d="M247.668,18.174V169.822h-.085a1.39,1.39,0,0,0-.225-.121c-.569-.264-1.88-.863-3.832-1.779-.227-.106-.449-.21-.691-.311l-1.174-.552c-.278-.121-.553-.258-.831-.379-2.332-1.089-5.2-2.42-8.477-3.957-1.005-.463-2.038-.948-3.127-1.463l-37.514-17.493c-.758-.343-1.5-.705-2.258-1.053-1.174-.552-2.369-1.1-3.559-1.658-1.089-.525-2.2-1.015-3.3-1.537l-8.733-4.073c-.9-.411-1.818-.826-2.712-1.257-1.522-.71-3.021-1.415-4.528-2.105-.525-.263-1.083-.525-1.636-.763l-1.538-.71c-.985-.453-1.954-.9-2.921-1.368-4.35-2.016-8.582-3.984-12.589-5.867-.9-.4-1.78-.811-2.66-1.227-2.632-1.225-5.181-2.415-7.581-3.536h0c-1.2-.552-2.332-1.089-3.454-1.606l-1.958-.9-1.191-.553L129.919,115l-1.847-.863c-1.691-.794-3.265-1.515-4.739-2.188-.431-.21-.847-.4-1.247-.59-1.274-.6-2.432-1.136-3.454-1.621-.342-.136-.653-.295-.964-.431-1.4-.658-2.491-1.158-3.2-1.484-.134-.077-.274-.147-.416-.21-.584-.273-1.158-.552-1.711-.842-1-.527-1.949-1.052-2.832-1.579-.4-.242-.791-.5-1.174-.763a.871.871,0,0,1-.222-.138c-.331-.221-.658-.463-.983-.705a18.282,18.282,0,0,1-1.507-1.158c-.325-.278-.653-.552-.964-.831a.061.061,0,0,1-.053-.047c-.325-.295-.658-.6-.969-.916l-.031-.037c-.384-.362-.727-.741-1.053-1.1s-.674-.757-.964-1.138-.605-.778-.885-1.173-.553-.795-.794-1.195-.48-.81-.689-1.22a21.809,21.809,0,0,1-1.58-3.8c-1.7-5.542-1.2-11.578.758-17.762a2.407,2.407,0,0,1,.105-.332c3.968-12.325,13.572-25.113,22.6-35.2a213.586,213.586,0,0,1,19.595-19.156Z" fill="#aeced5" opacity="0.239"/><path d="M247.668,46.934v67.992a.446.446,0,0,1-.174,0c-.167.032-.342.049-.525.069-8.566.69-17.081-2-25.661-1.9-6.619.053-13.072,1.764-19.555,3.127a191.706,191.706,0,0,1-52.236,3.658c-3.939-.274-7.9-.675-11.831-1.311h0c-8.155-1.331-16.1-3.684-23.092-8.03a40.21,40.21,0,0,1-10.9-9.925l-.031-.037c-.469-.621-.916-1.242-1.333-1.878A32.829,32.829,0,0,1,98.494,90.8c-.189-.569-.364-1.138-.527-1.727L98.436,73.2a2.7,2.7,0,0,1,.105-.332c3.97-12.325,13.572-25.113,22.6-35.2h2.543V49.881h4.387V40.092h5.179v9.1h6.93V59.827h7.808V49.449H161.63V59.827h11.934V43.514h6.1v5.262h5.112V59.827h5.112V52.46h6.25v7.367h3.423v-12.1h5.959V42.787h11.362v17.04h5.023V32.93h11.367v26.9h4.737V37.488h8.718v9.473Z" fill="#797979" opacity="0.239"/><path d="M247.668,169.822s-124.1-57.779-133.564-62.215S99.668,97.455,97.683,90.95L247.341,63.863Z" fill="#aeced5"/><path d="M247.668,169.822s-124.1-57.779-133.564-62.215S99.668,97.455,97.683,90.95L247.341,63.863Z" fill="url(#g)"/><path d="M147.656,105.664l99.2-20.9V96.913L165.162,114.9Z" fill="url(#h)"/><rect width="49.27" height="9.4" transform="translate(17.02 88.08)" fill="url(#i)"/><rect width="49.27" height="9.4" transform="translate(17.02 100.23)" fill="url(#i)"/><ellipse cx="1.87" cy="2.16" rx="1.87" ry="2.16" transform="translate(178.89 87.71)" fill="#aeced5"/><ellipse cx="1.87" cy="2.16" rx="1.87" ry="2.16" transform="translate(178.9 87.71)" fill="url(#k)"/><ellipse cx="1.04" cy="1.63" rx="1.04" ry="1.63" transform="translate(180.27 88.24)" fill="url(#l)"/><path d="M183.01,86.93s-.885,1.9-.058,2.631a7.816,7.816,0,0,0,1.2.905l-.364.525-2.854-1.079s-.231-.426.058-.657c0,0,.464.1.658-.19a10.6,10.6,0,0,0,.383-2.021Z" fill="#aeced5"/><path d="M183.01,86.93s-.885,1.9-.058,2.631a7.816,7.816,0,0,0,1.2.905l-.364.525-2.854-1.079s-.231-.426.058-.657c0,0,.464.1.658-.19a10.6,10.6,0,0,0,.383-2.021Z" fill="url(#m)"/><path d="M196.151,70.269c4.17-.616,9.546-1.653,13.467-2.232,1.191-.174,4.007-.316,5.2-.406.9-.062,3.458-6.652,3.827-7.468,2.191-4.873,4.428-9.725,6.65-14.583.069-.147.153-.295.211-.446.631-1.769.284-2.063-1.58-1.989-4.248.173-7.371,2.41-10,5.41-4.212,4.805-8.233,9.746-12.34,14.63C201.547,63.274,196.335,69.953,196.151,70.269Z" fill="#aeced5"/><path d="M196.151,70.269c4.17-.616,9.546-1.653,13.467-2.232,1.191-.174,4.007-.316,5.2-.406.9-.062,3.458-6.652,3.827-7.468,2.191-4.873,4.428-9.725,6.65-14.583.069-.147.153-.295.211-.446.631-1.769.284-2.063-1.58-1.989-4.248.173-7.371,2.41-10,5.41-4.212,4.805-8.233,9.746-12.34,14.63C201.547,63.274,196.335,69.953,196.151,70.269Z" fill="url(#n)"/><path d="M212.5,83.115c3.328-.527,6.433-.99,9.52-1.532,8.175-1.432,16.321-3.121,23.912-6.568a35.442,35.442,0,0,0,6.444-3.947,5.875,5.875,0,0,0,2.263-6.263c-1.053-5.615-1.838-11.277-2.721-16.919C251.6,45.84,250.5,45.1,248.5,45.65a4.85,4.85,0,0,0-3.574,3.158c-.964,2.826-1.885,5.667-2.874,8.478a21.656,21.656,0,0,1-1.318,3.068,3.859,3.859,0,0,1-2.969,1.994q-32.253,5.2-64.505,10.441c-5.454.879-10.429,2.727-14.4,6.716a13.772,13.772,0,0,0-4.074,6.983c-.385,1.942,0,2.6,1.98,2.7a59.186,59.186,0,0,0,8.691,0c7.666-.747,15.31-1.695,22.96-2.631a4.2,4.2,0,0,1,3.007.663q16.284,10.261,32.616,20.481c3.521,2.222,7.261,2.284,11.145,1.353.689-.163.9-.631.527-1.205a10.936,10.936,0,0,0-1.418-1.873q-10.408-10.888-20.816-21.766C213.2,83.914,212.936,83.6,212.5,83.115Z" fill="#aeced5"/><path d="M252.369,71.069a34.206,34.206,0,0,1-6.433,3.942c-7.619,3.457-15.743,5.141-23.907,6.563-3.087.525-6.192,1.01-9.52,1.53.438.485.7.811.985,1.1,6.939,7.268,13.878,14.509,20.8,21.8a10.793,10.793,0,0,1,1.422,1.858.732.732,0,0,1-.527,1.205c-3.876.942-7.619.874-11.14-1.357-10.862-6.842-21.76-13.61-32.641-20.482a4.314,4.314,0,0,0-3-.658c-7.66.921-15.3,1.863-22.96,2.6a57.488,57.488,0,0,1-8.693,0c-1.991-.1-2.363-.763-1.991-2.688a13.653,13.653,0,0,1,4.07-6.983c3.985-4,8.949-5.842,14.4-6.716q32.277-5.22,64.514-10.462a3.74,3.74,0,0,0,2.954-1.989,20.3,20.3,0,0,0,1.358-3.062c.985-2.826,1.907-5.647,2.87-8.489a4.906,4.906,0,0,1,3.565-3.158c2.016-.525,3.11.2,3.416,2.232.791,5.011,1.511,10.042,2.407,15.056.089.632.22,1.247.331,1.88A5.868,5.868,0,0,1,252.369,71.069Z" fill="url(#o)"/><path d="M235.163,109.059c-3.874.942-7.617.874-11.14-1.357-10.862-6.842-21.76-13.61-32.642-20.482a4.312,4.312,0,0,0-3-.658c-7.66.921-15.3,1.863-22.96,2.6a57.488,57.488,0,0,1-8.693,0c-1.989-.1-2.363-.763-1.989-2.688l26.819-3.158A21.76,21.76,0,0,1,193.6,85.367l1.48.715s30.82,20.745,35.137,21.14,5.47.589,5.47.589A.747.747,0,0,1,235.163,109.059Z" fill="url(#p)"/><path d="M252.369,71.069a34.206,34.206,0,0,1-6.433,3.942c-7.619,3.457-15.743,5.141-23.907,6.563-3.087.525-6.192,1.01-9.52,1.53l-2.369-2.688s31.126-5.689,36.232-10.152c4.645-4.073,7.488-6.872,7.946-7.33.089.631.22,1.247.331,1.878A5.845,5.845,0,0,1,252.369,71.069Z" fill="url(#q)"/><ellipse cx="1.87" cy="2.16" rx="1.87" ry="2.16" transform="translate(182.09 88.89)" fill="#aeced5"/><ellipse cx="1.87" cy="2.16" rx="1.87" ry="2.16" transform="translate(182.1 88.89)" fill="url(#r)"/><ellipse cx="1.04" cy="1.63" rx="1.04" ry="1.63" transform="translate(183.47 89.41)" fill="url(#s)"/></g></svg>