<svg xmlns="http://www.w3.org/2000/svg" xmlns:xlink="http://www.w3.org/1999/xlink" width="110.903" height="118.009" viewBox="0 0 110.903 118.009"><defs><filter id="a" x="0" y="0" width="110.903" height="118.009" filterUnits="userSpaceOnUse"><feOffset dy="3" input="SourceAlpha"/><feGaussianBlur stdDeviation="3.5" result="b"/><feFlood flood-opacity="0.161"/><feComposite operator="in" in2="b"/><feComposite in="SourceGraphic"/></filter></defs><g transform="translate(-399.492 -816.499)"><g transform="matrix(1, 0, 0, 1, 399.49, 816.5)" filter="url(#a)"><path d="M430.088,824H479.8a20.273,20.273,0,0,1,20.1,20.481v56.05a20.271,20.271,0,0,1-20.1,20.479H430.088a20.271,20.271,0,0,1-20.1-20.479V844.48A20.272,20.272,0,0,1,430.088,824Z" transform="translate(-399.49 -816.5)" fill="#fff"/></g><ellipse cx="31.2" cy="31.8" rx="31.2" ry="31.8" transform="translate(421.63 840.81)" fill="#f2a58c" opacity="0.239"/><path d="M451.149,901.555a4.172,4.172,0,0,1-4.158-4.175V882.049a.885.885,0,1,1,1.769,0V897.38a2.4,2.4,0,0,0,2.389,2.4h29.845a2.4,2.4,0,0,0,2.388-2.4V872.3H448.761v5.962a.885.885,0,1,1-1.769,0V866.721a4.172,4.172,0,0,1,4.158-4.175h29.845a4.172,4.172,0,0,1,4.158,4.175V897.38a4.172,4.172,0,0,1-4.158,4.175Zm-2.389-34.835v3.8h34.621v-3.8a2.4,2.4,0,0,0-2.388-2.4H451.149A2.4,2.4,0,0,0,448.761,866.721Zm-20.21,30.4a3.731,3.731,0,0,1-3.719-3.733V856.859a.886.886,0,1,1,1.772,0v36.534a1.953,1.953,0,0,0,1.947,1.955h15.785a.889.889,0,0,1,0,1.778Zm25.285-3.409a.888.888,0,0,1,0-1.777h24.472a.888.888,0,0,1,0,1.777Zm18.933-7.672a.889.889,0,0,1,0-1.778h3.725a.929.929,0,0,0,.927-.931v-3.772a.93.93,0,0,0-.927-.932H455.649a.93.93,0,0,0-.928.932v3.772a.93.93,0,0,0,.928.931H469a.889.889,0,0,1,0,1.778H455.649a2.706,2.706,0,0,1-2.7-2.709v-3.772a2.706,2.706,0,0,1,2.7-2.709h20.845a2.707,2.707,0,0,1,2.7,2.709v3.772a2.707,2.707,0,0,1-2.7,2.709Zm-39.707-1.817a.889.889,0,0,1,0-1.778h9.018a.889.889,0,0,1,0,1.778Zm0-6.661a.888.888,0,0,1,0-1.777h9.018a.888.888,0,0,1,0,1.777Zm1.076-5.544a1.968,1.968,0,0,1-1.962-1.967V858.974a1.969,1.969,0,0,1,1.962-1.968H471.66a.889.889,0,0,1,0,1.777H434.138a.19.19,0,0,0-.191.191v11.082a.19.19,0,0,0,.191.19h7.973a.889.889,0,0,1,0,1.778Zm44.806-12.143v-8.417H426.6v1.609a.886.886,0,1,1-1.772,0V844.75a3.73,3.73,0,0,1,3.719-3.731H477a3.728,3.728,0,0,1,3.716,3.731v15.13a.885.885,0,1,1-1.769,0ZM426.6,844.75v4.935h52.339V844.75A1.953,1.953,0,0,0,477,842.8H428.551A1.953,1.953,0,0,0,426.6,844.75Zm15.961,2.334a.888.888,0,0,1,0-1.777h.665a.888.888,0,0,1,0,1.777Zm-6.155,0a.888.888,0,0,1,0-1.777h.665a.888.888,0,0,1,0,1.777Zm-6.154,0a.888.888,0,0,1,0-1.777h.664a.888.888,0,0,1,0,1.777Z" fill="#797979"/></g></svg>