<svg xmlns="http://www.w3.org/2000/svg" xmlns:xlink="http://www.w3.org/1999/xlink" width="377.45" height="309.62" viewBox="0 0 377.45 309.62"><defs><linearGradient id="a" x1="3.685" y1="0.222" x2="-2.685" y2="0.778" gradientUnits="objectBoundingBox"><stop offset="0"/><stop offset="0.01"/><stop offset="0.08" stop-opacity="0.69"/><stop offset="0.21" stop-opacity="0.322"/><stop offset="1" stop-opacity="0"/></linearGradient><linearGradient id="b" x1="-3.995" y1="1.369" x2="4.995" y2="-0.369" xlink:href="#a"/><linearGradient id="c" x1="0.653" y1="12.71" x2="0.347" y2="-11.71" xlink:href="#a"/><linearGradient id="d" x1="0.653" y1="12.71" x2="0.347" y2="-11.71" xlink:href="#a"/><linearGradient id="e" x1="0.641" y1="15.26" x2="0.359" y2="-14.26" xlink:href="#a"/><linearGradient id="f" x1="1.492" y1="2.725" x2="-0.492" y2="-1.725" xlink:href="#a"/></defs><g transform="translate(-1.197 -0.703)"><path d="M72.748,300.524c31.068,15.19,71.311,9.343,104.3,4.754,26.149-3.731,44.927-9.508,71.313-6.489a231.732,231.732,0,0,0,83.2-5.657c11.387-2.876,22.8-6.8,31.971-14.119s15.856-18.637,15.048-30.355c-1.118-15.95-14.762-27.6-23.771-40.718-26.694-38.484-14.643-91.777-30.9-135.657a109.773,109.773,0,0,0-151.181-60.4c-35.656,17.4-59.689,48.586-93.776,68.458C60.5,91.085,40.253,99.571,25.444,115,9.066,131.971,1.079,156.025,1.2,179.606s7.772,46.708,19.278,67.34S47.668,286.31,68.018,298.1C69.634,298.932,71.179,299.74,72.748,300.524Z" fill="#5ba9bc" opacity="0.18"/><path d="M63.951,256.074c-5.68.808-13.169,4.992-10.554,10.126a9.252,9.252,0,0,0,6.539,3.828,309.851,309.851,0,0,0,40.885,7.416c24.958,2.829,50.155,2.639,75.257,2.377l73-.618c28.524-.238,57.453-.5,85.717-5.135-2.377-11.885-16.4-16.877-28.4-18.184-29.713-3.28-60.092,2.52-89.378-3.351-14.975-3.019-29.737-9.081-45-7.868-16.4,1.283-27.836,9.959-44.5,8.461C106.5,251.249,84.728,253.055,63.951,256.074Z" fill="#5ba9bc" opacity="0.18"/><path d="M99.037,260.9a10.357,10.357,0,0,0,.832,4.349,7.13,7.13,0,0,0,3.163,2.948,12.451,12.451,0,0,0,9.271.927,1.767,1.767,0,0,0,1.069-.665,1.337,1.337,0,0,0,.19-.9,6.971,6.971,0,0,0-2.377-4.374,14.571,14.571,0,0,1-3.329-3.827c-1.426-2.876-.379-10.507-5.775-9.271C97.516,251.107,98.919,257.69,99.037,260.9Z" fill="#fbb8aa"/><path d="M98.3,265.963s-.786,1.9.166,3,10.672,7.131,17.233,2.377-8.914-5.372-8.914-5.372Z" fill="#5ba9bc"/><path d="M98.68,261.661a1.4,1.4,0,0,1,1.735.452,5.729,5.729,0,0,0,5.206,1.877c2.138-.523,2.995-2.97,4.042-2.97s6.7,4.754,7.13,6.869-2.568,3.566-5.753,3.779-10.435-2.021-11.885-3.684a6.9,6.9,0,0,1-.476-6.323Z" fill="#fff"/><path d="M80.5,263.823a10.846,10.846,0,0,0,.81,4.374,7.333,7.333,0,0,0,3.183,2.948,12.562,12.562,0,0,0,9.272.9,1.744,1.744,0,0,0,1.069-.642,1.575,1.575,0,0,0,.19-.927,6.9,6.9,0,0,0-2.377-4.35,16.379,16.379,0,0,1-3.351-3.8c-1.4-2.876-.356-10.507-5.753-9.294C78.951,254.078,80.378,260.661,80.5,263.823Z" fill="#fbb8aa"/><path d="M79.759,269.028s-.76,1.878.168,3,10.65,7.132,17.209,2.378-8.89-5.491-8.89-5.491Z" fill="#5ba9bc"/><path d="M80.139,264.631a1.356,1.356,0,0,1,1.735.452,5.661,5.661,0,0,0,5.206,1.854c2.116-.5,2.995-2.948,4.018-2.971s6.727,4.754,7.13,6.87-2.566,3.59-5.751,3.779-10.437-2-11.887-3.685A6.824,6.824,0,0,1,80.139,264.631Z" fill="#fff"/><path d="M76.575,184.027s-1,55.552,3.113,74.068l10.459,1.283,7.132-76.064Z" fill="#473f47"/><path d="M108.9,178.013s4.9,29.95-1.047,78.061L97.4,257.381l-7.13-76.064Z" fill="#473f47"/><path d="M121.121,154.1c-.119,2-.761,3.756-2.521,4.327h-.452c-3.208.642-7.416-1.784-10.34-3.922a40.047,40.047,0,0,1-3.518-2.639V130.472l15.593,15.974A24.8,24.8,0,0,1,121.121,154.1Z" fill="#5ba9bc"/><path d="M107.928,154.528c0,1,.142,2.021.142,3.019,0,5.538-1.284,11.268.356,16.64a5.99,5.99,0,0,1,.476,3.827,4.751,4.751,0,0,1-2.377,2.234,46.253,46.253,0,0,1-16.044,4.278c-4.137.571-10.032,1.807-13.859-.427a6.865,6.865,0,0,1-2.71-4.493,85.027,85.027,0,0,1-2.592-17.471c0-.784-.118-1.545-.142-2.377-.332-5.325-.427-10.625-.332-15.95,0-3.852.379-8.011,2.9-10.91a27.526,27.526,0,0,1,14.714-7.346,15.79,15.79,0,0,1,4.755-.262,20.125,20.125,0,0,1,6.537,2.211,11.126,11.126,0,0,1,5.8,4.755,32.889,32.889,0,0,1,2.734,8.794,31.821,31.821,0,0,1,.356,8.439c-.144,1.4-.5,2.805-.642,4.208A4.011,4.011,0,0,0,107.928,154.528Z" fill="#5ba9bc"/><path d="M85.321,185.9c-1.616.475-5.324-1-6.561-1.213a10.59,10.59,0,0,1-2.138-.665c-3.661-.927-4.089-11.243-4.445-14a196.575,196.575,0,0,1-2.519-22.3,23.769,23.769,0,0,1,.974-8.391,9.721,9.721,0,0,1,5.49-6.133c4.755-1.688,6.087,13.144,6.729,16.21.808,3.852,1.638,7.7,2.375,11.53.571,2.829.261,5.063,2.377,7.131a1.17,1.17,0,0,0,.571.333,1.146,1.146,0,0,0,.571-.143,8.327,8.327,0,0,1,2.947-.689,1.854,1.854,0,0,1,2.236,1.663,6.61,6.61,0,0,1-2.829,6.964c-1,.642-2.14.976-3.161,1.594-3.781,2.377-.619,4.754-2.116,7.606A1,1,0,0,1,85.321,185.9Z" fill="#020202" opacity="0.102"/><path d="M96.613,120.965a3.5,3.5,0,0,1-2.377,1.117,11.043,11.043,0,0,1-2.163,0h-.4a.481.481,0,0,0-.31,0,.561.561,0,0,0,0,.333,24.205,24.205,0,0,0,0,4.35h0v.784a1.435,1.435,0,0,1,0,.832,1.313,1.313,0,0,1-.879.571,6.944,6.944,0,0,1-1.974.356,8.74,8.74,0,0,1-4.018-1.426,41,41,0,0,0-.4-7.44,39.637,39.637,0,0,1-.952-9.509,5.233,5.233,0,0,1,6.063-5.182,11.881,11.881,0,0,1,6.488,1.784,2.591,2.591,0,0,1,.976,1.925c.237,1.26.452,2.52.569,3.8s.261,2.9.285,4.35A4.947,4.947,0,0,1,96.613,120.965Z" fill="#fbb8aa"/><path d="M134.432,138.008c.144-.214.427-.452.642-.309a.62.62,0,0,1,.19.309,1.4,1.4,0,0,0,1.284.737h1.545a4.349,4.349,0,0,1,3.422,1.853,6.781,6.781,0,0,1,1.237,3.779,4.757,4.757,0,0,1-.927,3.423,6.376,6.376,0,0,1-5.111,1.355h-1.665a1.571,1.571,0,0,1-1.735-1.26c-.689-1.641-1.924-3.3-1.069-4.969a29.251,29.251,0,0,1,2.187-4.92Z" fill="#fbb8aa"/><path d="M94.545,108.795a2.971,2.971,0,0,1-2.163.689c-2.14-.143-3.068-1.473-4.755.595a4.763,4.763,0,0,0-1,2.377,9.259,9.259,0,0,0,.19,2.377c-.618.214-.737-.9-1.213-1.355s-1.569.166-1.64.927a4.389,4.389,0,0,0,.691,2.211,6.822,6.822,0,0,1,.284,4.35c0,.356-.356.761-.688.665s-.547-.665-.784-.951a12.03,12.03,0,0,0-1.093-1.094c-1.189-1.045-3.21-1.854-4.089-3.089a3.328,3.328,0,0,1-.547-2.259c0-.19.618-2.115.927-1.925A2.781,2.781,0,0,1,79,107.559a5.585,5.585,0,0,1,2.829-6.346,11.5,11.5,0,0,1,7.32-.9,18.519,18.519,0,0,1,7.75,2.757,6.09,6.09,0,0,1,2,1.974,2.992,2.992,0,0,1,.237,2.733.9.9,0,0,1-.855-.428,1.711,1.711,0,0,1-1.545,1.831,1.618,1.618,0,0,1-1.664-.951,2.136,2.136,0,0,1-.523.571Z" fill="#473f47"/><path d="M92.168,122.129h-.4a.477.477,0,0,0-.308,0,.561.561,0,0,0,0,.333,24.207,24.207,0,0,0,0,4.35h0a5.824,5.824,0,0,1-4.018-6.18,23.776,23.776,0,0,0,4.921,1.45Z" fill="#dc9e93"/><path d="M134.124,148.515a30.647,30.647,0,0,1-7.488,7.463,14.971,14.971,0,0,1-7.132,2.52,2.781,2.781,0,0,1-2.353-1.046,7.847,7.847,0,0,1-1.806-4.445c-.166-4.278,4.469-6.775,4.469-6.775s10.554-3.351,11.885-2.805c.691.285,1.355,1.784,1.806,3.067A20.558,20.558,0,0,1,134.124,148.515Z" fill="#5ba9bc"/><path d="M134.124,148.515a30.647,30.647,0,0,1-7.488,7.463,14.971,14.971,0,0,1-7.132,2.52,2.376,2.376,0,0,1-1-.119,2.474,2.474,0,0,1-.452.143c-3.208.642-7.392-1.806-10.34-3.946l-3.518-1.26-1-9.959s8.463,7.892,12.146,9.65A9.515,9.515,0,0,0,121,154.053a6.421,6.421,0,0,0,1.5-.452,49.264,49.264,0,0,0,10.864-7.131,17.2,17.2,0,0,1,.761,2.044Z" fill="#020202" opacity="0.102"/><path d="M99.442,158.76l.9-9.009a1.475,1.475,0,0,1,1.4-1.355l11.885-.595a1.523,1.523,0,0,1,1.569,1.45,1.215,1.215,0,0,1,0,.285l-3.114,20.513a1.475,1.475,0,0,1-1.284,1.26l-10.957,1.522a1.522,1.522,0,0,1-1.689-1.307,1.425,1.425,0,0,1,0-.309Z" fill="#5ba9bc"/><path d="M115.178,149.489,112.088,170a1.522,1.522,0,0,1-1.284,1.26l-10.886,1.522h0a1.5,1.5,0,0,1-1.711-1.283,1.63,1.63,0,0,1,0-.357l1.33-12.455.808-8.937a1.5,1.5,0,0,1,1.426-1.332l11.887-.595a1.5,1.5,0,0,1,1.545,1.308.882.882,0,0,1-.024.356Z" fill="#fff"/><path d="M115.178,149.489,112.088,170a1.522,1.522,0,0,1-1.284,1.26l-10.886,1.522a.886.886,0,0,1,0-.357L101.224,160l.881-9.033a1.5,1.5,0,0,1,1.4-1.354l11.624-.571A.738.738,0,0,1,115.178,149.489Z" fill="url(#a)"/><path d="M95.8,158.617a1.93,1.93,0,0,1,1.665-.69,5.427,5.427,0,0,1,1,.618,2.208,2.208,0,0,0,.95.215,9.491,9.491,0,0,0,3.9-.547,5.089,5.089,0,0,1,2.021-.5,3,3,0,0,1,2.021,1.426,5.7,5.7,0,0,1,.119,6.156,5.979,5.979,0,0,1-2.021,1.831,12.571,12.571,0,0,1-5.753,1.45H93.689a2.385,2.385,0,0,1-1.379-.166,2.138,2.138,0,0,1-.664-1.759,5.942,5.942,0,0,1,.547-4.065C93.357,161.136,94.64,160,95.8,158.617Z" fill="#fbb8aa"/><path d="M73.793,132.849s-22.036,28.81-15.07,38.984,36.321-1.688,36.321-1.688l-2.851-8.414s-20.633,2.614-20.8.309,13.1-15.546,13.1-15.546S86.866,127.168,73.793,132.849Z" fill="#5ba9bc"/><rect width="150.731" height="109.631" transform="translate(135.483 132.735)" fill="#fff"/><rect width="132.31" height="5.2" transform="translate(146.312 224.298)" fill="#5ba9bc"/><rect width="12.831" height="11.193" transform="translate(196.262 184.195)" fill="#5ba9bc"/><rect width="12.831" height="19.869" transform="translate(183.519 175.495)" fill="#5ba9bc"/><rect width="12.831" height="29.073" transform="translate(170.802 166.316)" fill="#5ba9bc"/><rect width="12.831" height="38.013" transform="translate(158.059 157.376)" fill="#5ba9bc"/><rect width="12.831" height="47.015" transform="translate(145.317 148.373)" fill="#5ba9bc"/><rect width="12.831" height="47.015" transform="translate(145.317 148.373)" fill="url(#b)"/><path d="M256.185,56.1a16.877,16.877,0,0,1-16.854,16.877H196.045a16.877,16.877,0,1,1,0-33.73h6.229a13.1,13.1,0,0,1,0-1.378,15.5,15.5,0,0,1,30.9-.547v.452a13.122,13.122,0,0,1,0,1.379h6.2A16.828,16.828,0,0,1,256.232,56Z" fill="#5ba9bc" opacity="0.31"/><path d="M250.955,54.409A16.875,16.875,0,0,1,234.1,71.285H190.792a16.877,16.877,0,0,1,0-33.73h6.229a13.05,13.05,0,0,1,0-1.379,15.5,15.5,0,0,1,30.9,0h0a13.05,13.05,0,0,1,0,1.379h6.227A16.875,16.875,0,0,1,250.955,54.409Z" fill="#fff"/><rect width="3.236" height="14.291" transform="translate(210.83 71.354)" fill="#5ba9bc"/><path d="M252.573,106.893h-3.234V87.259h-75.02v19.635h-3.232V84.026h81.486Z" fill="#5ba9bc"/><rect width="3.236" height="21.279" transform="translate(210.83 85.645)" fill="#5ba9bc"/><rect width="12.453" height="12.453" transform="translate(244.398 106.898)" fill="#5ba9bc"/><rect width="12.453" height="12.453" transform="translate(206.221 106.898)" fill="#5ba9bc"/><rect width="12.453" height="12.453" transform="translate(166.735 106.898)" fill="#5ba9bc"/><rect width="132.31" height="5.2" transform="translate(146.312 204.844)" fill="#5ba9bc"/><rect width="64.518" height="5.2" transform="translate(146.312 204.844)" fill="url(#c)"/><rect width="64.518" height="5.2" transform="translate(161.761 224.109)" fill="url(#d)"/><rect width="132.31" height="5.2" transform="translate(146.312 214.577)" fill="#5ba9bc"/><rect width="84.979" height="5.2" transform="translate(151.26 214.577)" fill="url(#e)"/><path d="M229.04,166.96a15.7,15.7,0,0,1,1.377-6.395l-9.508-5.182a26.149,26.149,0,0,0,11.885,35.062,27.364,27.364,0,0,0,5.206,1.9l1.926-10.72A15.329,15.329,0,0,1,229.04,166.96Z" fill="#5ba9bc"/><path d="M266.882,180.39a26.145,26.145,0,0,1-28.927,11.884l1.924-10.72a15.3,15.3,0,0,0,17.352-6.323Z" fill="#5ba9bc" opacity="0.502"/><path d="M270.591,166.96a26.165,26.165,0,0,1-3.71,13.43l-9.507-5.206a15.367,15.367,0,0,0-25.839-16.64,12.556,12.556,0,0,0-1.045,1.926l-9.509-5.182a26.148,26.148,0,0,1,49.728,11.575Z" fill="url(#f)"/></g></svg>