<svg xmlns="http://www.w3.org/2000/svg" xmlns:xlink="http://www.w3.org/1999/xlink" preserveAspectRatio="none" viewBox="166 81 1300 876.005"><defs><filter id="a" x="0" y="0" width="1559.015" height="876.005" filterUnits="userSpaceOnUse"><feOffset dy="11" input="SourceAlpha"/><feGaussianBlur stdDeviation="31" result="b"/><feFlood flood-opacity="0.078"/><feComposite operator="in" in2="b"/><feComposite in="SourceGraphic"/></filter></defs><g transform="matrix(1, 0, 0, 1, 0, 0)" filter="url(#a)"><path d="M-2.308,1410.017c-11.743-108.274,2.63-306.786,0-380.459,53.321-34.24,197.349,90.048,323.423,124.868s235.434-7.457,374.148-22.372c235.505-25.322,309.814,66.478,444.311,0s226.194-214,226.441-125.59-3.783,326.3-3.783,326.3-7.909,216.7-56.909,252.549c-17.256,12.628-39.363,16.967-66.456,9.44-199.212-55.336-359.868,130.326-503.226,55.381s-158.658,96.46-345.494-28S38.8,1772.019-2.308,1410.017Z" transform="translate(99.99 -897)" fill="#fff" opacity="0.988"/></g></svg>